<svg width="1300" height="1300" viewBox="0 0 1300 1300" fill="none" xmlns="http://www.w3.org/2000/svg">
<g clip-path="url(#clip0_615_769)">
<path d="M317.781 649.5C468.562 890.75 649.5 890.75 649.5 890.75C649.5 890.75 830.438 890.75 981.219 649.5C1013.21 649.5 1043.89 662.209 1066.51 684.83C1089.14 707.452 1101.84 738.133 1101.84 770.125C1101.84 802.117 1089.14 832.798 1066.51 855.42C1043.89 878.041 1013.21 890.75 981.219 890.75H317.781C285.79 890.75 255.108 878.041 232.486 855.42C209.865 832.798 197.156 802.117 197.156 770.125C197.156 738.133 209.865 707.452 232.486 684.83C255.108 662.209 285.79 649.5 317.781 649.5Z" stroke="white" stroke-width="12" stroke-linecap="round" stroke-linejoin="round"/>
<path d="M413.791 770.804L489.446 372.553C490.407 367.437 492.676 362.657 496.031 358.678C499.387 354.699 503.716 351.656 508.596 349.846C513.477 348.036 518.742 347.52 523.881 348.348C529.02 349.176 533.857 351.32 537.922 354.572L630.652 431.81C636.001 436.092 642.648 438.425 649.5 438.425C656.352 438.425 662.999 436.092 668.348 431.81L761.078 354.572C765.143 351.32 769.98 349.176 775.119 348.348C780.258 347.52 785.523 348.036 790.404 349.846C795.284 351.656 799.613 354.699 802.969 358.678C806.325 362.657 808.593 367.437 809.554 372.553L885.209 770.804" stroke="white" stroke-width="12" stroke-linecap="round" stroke-linejoin="round"/>
<path d="M431.093 679.656H867.907" stroke="white" stroke-width="12" stroke-linecap="round" stroke-linejoin="round"/>
</g>
<defs>
<clipPath id="clip0_615_769">
<rect width="965" height="965" fill="white" transform="translate(167 167)"/>
</clipPath>
</defs>
</svg>
