<svg width="1300" height="1300" viewBox="0 0 1300 1300" fill="none" xmlns="http://www.w3.org/2000/svg">
<g clip-path="url(#clip0_409_3769)">
<path d="M1003.04 1182.75C1000.07 1184.87 996.668 1186.99 993.694 1189.12C990.295 1191.24 987.321 1193.37 983.923 1195.07C980.949 1196.76 978.4 1198.46 975.426 1200.16C975.001 1200.59 974.576 1200.59 974.151 1201.01C964.38 1206.96 954.184 1212.48 943.988 1217.58C941.014 1219.28 937.615 1220.98 934.641 1222.26C934.641 1222.26 934.217 1222.68 933.792 1222.68C930.393 1224.38 926.994 1226.08 923.596 1227.78C916.798 1231.18 909.576 1234.15 902.779 1237.12C899.38 1238.82 895.556 1240.1 892.158 1241.37C888.759 1242.65 884.936 1244.35 881.537 1245.62C878.138 1246.9 874.315 1248.59 870.916 1249.87C870.916 1249.87 870.916 1249.87 870.491 1249.87C867.092 1251.14 863.269 1252.42 859.87 1253.69C852.223 1256.24 844.151 1258.79 836.504 1261.34C833.955 1262.19 830.981 1263.04 828.432 1263.89C820.36 1266.44 812.289 1268.56 804.217 1270.26C801.243 1271.11 798.269 1271.54 794.87 1272.39C787.223 1274.09 779.151 1275.78 771.504 1277.48C769.805 1277.91 768.53 1277.91 766.831 1278.33C764.282 1278.76 761.308 1279.18 758.759 1279.61C754.936 1280.03 751.537 1280.88 747.713 1281.31C746.014 1281.73 744.315 1281.73 742.615 1282.16C740.491 1282.58 737.942 1283.01 735.393 1283.01C728.596 1283.86 721.373 1284.71 714.576 1285.56C712.452 1285.98 709.903 1285.98 707.779 1286.41H707.354C704.38 1286.83 701.406 1286.83 698.432 1287.25C695.458 1287.68 692.485 1287.68 689.511 1287.68C687.811 1287.68 685.687 1288.1 683.988 1288.1C680.589 1288.1 677.615 1288.53 674.642 1288.53C670.393 1288.53 666.57 1288.95 662.321 1288.95C658.073 1288.95 654.249 1288.95 650.001 1288.95C647.027 1288.95 644.053 1288.95 641.079 1288.95C461.798 1286.41 300.785 1210.36 185.655 1089.71C185.655 1089.71 185.655 1089.28 185.23 1089.28C172.485 1077.81 183.53 1016.63 234.936 977.974C299.511 929.118 454.151 898.53 454.151 898.53C454.151 898.53 514.053 888.758 736.243 935.066C866.243 962.255 965.23 1001.76 1020.46 1108.82C1031.93 1130.92 1043.4 1164.9 1003.04 1182.75Z" fill="white"/>
<path d="M737.517 930.392C819.086 946.961 906.177 964.804 973.301 1018.76C995.818 1037.03 1010.69 1063.79 1023.01 1089.71C1028.96 1102.45 1034.9 1115.62 1039.58 1129.64C1042.12 1138.99 1045.95 1149.61 1043.82 1160.65C1043.4 1163.63 1040.85 1167.45 1038.73 1169.58C1028.96 1179.35 1018.33 1185.29 1007.71 1192.94C945.262 1236.27 873.465 1266.86 799.118 1283.01C633.432 1319.12 454.151 1291.08 308.432 1203.99C260.001 1174.67 215.393 1138.99 177.158 1096.93C172.909 1091.83 172.909 1083.33 172.909 1077.81C173.334 1065.07 176.733 1052.75 180.981 1041.27C191.177 1014.93 204.347 988.595 226.863 970.327C243.007 959.281 260.426 949.935 278.269 942.288C334.347 918.497 393.399 901.928 454.151 895.131C459.249 894.706 460.099 901.928 455.001 902.778C396.798 914.673 339.02 932.516 285.066 956.732C265.524 966.503 244.707 975 228.988 990.294C214.118 1006.44 203.497 1026.41 195.001 1046.8C189.478 1059.12 185.654 1078.66 187.354 1088.43C214.118 1120.29 245.556 1148.33 279.543 1172.55C465.622 1302.55 748.138 1311.05 946.112 1202.71C963.955 1192.94 981.373 1181.9 997.942 1170.42C1006.01 1164.9 1014.51 1160.23 1020.88 1153.86C1021.31 1153.43 1020.88 1153.86 1020.88 1154.28C1020.88 1154.71 1020.46 1155.13 1020.46 1155.13C1020.88 1150.03 1019.18 1143.24 1017.06 1136.44C1009.41 1111.8 997.092 1085.88 983.922 1063.37C963.105 1029.8 927.844 1008.56 892.158 991.569C867.517 980.098 841.602 971.177 815.262 962.68C788.922 954.183 762.158 946.961 735.393 940.588C728.596 938.889 730.72 929.118 737.517 930.392Z" fill="black"/>
<path d="M378.528 894.705C378.528 894.705 440.554 870.065 452.025 869.215L452.875 878.986C452.875 878.986 403.594 900.228 400.62 903.627C398.071 906.6 378.528 894.705 378.528 894.705Z" fill="#7E5D6D"/>
<path d="M1144.08 1446.14H69.6719C69.6719 1446.14 97.7111 1246.9 162.711 1106.7C211.567 1000.49 306.731 932.516 392.548 901.928C416.763 893.431 435.456 884.085 452.874 879.412C452.874 880.261 531.044 866.666 594.345 873.889C693.332 884.934 794.443 918.497 795.718 918.072C850.522 932.516 917.646 973.3 1014.93 1054.87C1124.54 1146.63 1144.08 1446.14 1144.08 1446.14Z" fill="white"/>
<mask id="mask0_409_3769" style="mask-type:alpha" maskUnits="userSpaceOnUse" x="69" y="871" width="1076" height="576">
<path d="M1144.08 1446.14H69.6719C69.6719 1446.14 97.7111 1246.9 162.711 1106.7C211.567 1000.49 306.731 932.516 392.548 901.928C416.763 893.431 435.456 884.085 452.874 879.412C452.874 880.261 531.044 866.666 594.345 873.889C693.332 884.934 794.443 918.497 795.718 918.072C850.521 932.516 917.646 973.3 1014.93 1054.87C1124.54 1146.63 1144.08 1446.14 1144.08 1446.14Z" fill="white"/>
</mask>
<g mask="url(#mask0_409_3769)">
<path d="M290.587 869.64C313.953 870.49 325.848 870.914 349.214 870.489C370.031 882.81 380.227 888.757 401.469 900.228C423.136 898.954 434.182 898.104 455.848 895.555C477.515 905.751 488.136 910.849 509.803 920.62C531.894 917.222 542.94 915.097 564.607 910.849C586.698 919.346 598.169 923.169 620.26 930.391C642.352 924.869 653.397 921.47 675.489 915.097C698.43 921.045 709.901 924.019 732.842 929.117C754.933 921.045 765.979 917.222 788.071 908.3C811.437 912.124 823.332 913.823 846.698 916.797C868.365 906.601 879.411 901.503 901.077 890.457C924.868 891.731 936.763 892.156 960.554 892.581C981.796 879.836 992.417 873.463 1013.66 860.293C1040.42 858.169 1053.59 856.895 1080.36 853.921C1078.23 864.117 1077.38 869.215 1075.68 879.411C1053.59 881.96 1042.12 883.235 1020.03 884.934C998.365 898.529 987.744 905.326 965.652 918.071C941.437 918.071 929.541 917.646 905.326 916.372C883.234 927.418 872.188 932.94 850.097 943.137C826.306 940.163 814.411 938.463 790.62 935.065C768.528 943.986 757.058 948.235 734.966 955.882C711.6 950.784 700.129 947.81 677.188 941.862C655.097 948.235 643.626 951.633 621.535 957.156C599.018 949.509 587.548 945.686 565.031 937.189C542.94 941.437 531.894 943.561 509.378 946.96C487.286 937.189 476.665 932.516 454.574 921.895C432.482 924.019 421.437 924.869 399.77 926.143C378.528 914.673 367.907 908.725 347.09 895.98C327.548 895.98 317.776 895.98 298.234 895.13C295.26 885.359 293.561 880.261 290.587 869.64Z" fill="black"/>
<path d="M284.642 977.549C308.008 977.974 319.478 977.974 343.269 977.125C364.511 989.02 375.132 994.543 396.374 1005.59C418.04 1003.89 428.661 1002.61 450.328 999.641C471.995 1009.41 483.04 1014.09 505.132 1023.01C526.798 1019.18 537.419 1016.63 559.511 1011.96C582.027 1019.61 593.498 1023.43 616.014 1030.23C637.681 1023.86 648.727 1020.88 670.393 1013.66C693.334 1019.18 705.23 1021.73 728.171 1026.41C749.838 1017.91 760.459 1013.66 782.125 1004.31C805.916 1007.71 817.387 1008.99 841.178 1011.11C862.419 1000.49 873.04 994.968 894.282 983.497C918.073 984.347 930.393 984.347 954.184 983.922C975.001 971.177 985.197 964.38 1006.01 950.785C1032.78 948.236 1046.37 946.961 1073.14 943.138C1071.44 953.334 1071.01 958.432 1069.31 968.203C1046.8 971.177 1035.75 972.451 1013.66 974.576C992.419 988.595 982.223 995.393 960.982 1008.56C936.766 1008.99 924.446 1008.99 900.23 1008.14C878.563 1019.61 867.942 1025.13 846.276 1036.18C822.485 1034.05 810.165 1032.78 786.374 1029.38C764.707 1038.73 753.661 1042.97 731.57 1051.47C708.204 1046.8 696.308 1044.25 672.942 1038.73C650.851 1045.95 640.23 1048.92 618.138 1055.29C595.197 1048.5 583.727 1044.67 561.21 1037.03C539.119 1041.7 528.498 1044.25 506.406 1048.07C484.315 1039.15 472.844 1034.48 450.753 1024.28C429.086 1026.83 418.04 1028.1 396.374 1030.23C374.707 1019.18 364.086 1013.24 342.844 1001.34C323.302 1001.77 313.531 1002.19 294.413 1001.77C290.164 992.419 288.465 987.321 284.642 977.549Z" fill="black"/>
<path d="M278.691 1083.76C301.633 1083.33 313.528 1082.91 336.894 1082.06C358.136 1093.53 369.182 1099.05 390.848 1109.25C412.09 1106.7 422.711 1105.42 443.953 1102.03C466.044 1111.37 477.09 1115.62 499.606 1124.12C520.848 1119.44 531.469 1117.32 553.136 1111.8C576.077 1119.02 587.548 1122.42 610.489 1128.79C631.731 1121.99 642.352 1118.59 663.593 1111.37C686.959 1116.47 698.855 1118.59 722.221 1122.84C743.463 1113.92 754.084 1109.67 774.901 1099.9C798.691 1102.45 810.587 1103.73 834.378 1105.42C855.195 1094.38 865.816 1088.86 886.208 1076.96C910.423 1076.96 922.319 1076.96 946.535 1076.11C966.927 1062.94 977.123 1056.14 997.09 1042.55C1023.85 1039.57 1037.45 1037.88 1064.21 1033.63C1062.94 1043.4 1062.51 1048.5 1061.67 1058.69C1039.15 1062.09 1028.1 1063.79 1005.59 1066.34C985.195 1080.36 974.574 1087.58 954.182 1100.75C929.541 1101.6 917.221 1102.03 893.005 1101.6C871.763 1113.5 861.567 1119.02 840.325 1130.49C816.11 1128.79 804.214 1127.94 779.999 1124.97C758.757 1134.74 748.136 1139.41 726.469 1148.33C702.678 1144.51 690.783 1141.96 667.417 1136.86C645.75 1144.51 635.129 1147.91 613.463 1154.71C590.097 1148.33 578.626 1144.93 555.685 1137.71C534.018 1143.23 523.397 1145.78 501.731 1150.03C479.214 1141.54 467.744 1136.86 445.652 1127.52C423.986 1130.91 413.365 1132.19 391.698 1134.74C369.606 1124.12 358.986 1118.59 337.319 1107.12C318.201 1107.97 308.43 1108.4 289.312 1108.82C284.639 1099.05 282.94 1093.95 278.691 1083.76Z" fill="black"/>
<path d="M272.319 1189.54C295.261 1188.69 306.731 1187.84 329.672 1186.14C351.339 1197.19 362.385 1202.29 384.476 1212.06C405.293 1209.08 415.914 1207.39 437.156 1203.56C459.672 1212.48 471.143 1216.73 493.659 1224.38C514.476 1219.28 525.097 1216.73 546.339 1210.78C569.28 1217.58 581.176 1220.56 604.117 1226.08C624.934 1218.86 635.555 1215.03 656.372 1207.39C680.162 1211.63 691.633 1213.76 715.424 1217.16C736.241 1207.81 746.437 1203.14 767.254 1193.37C791.47 1195.49 803.365 1196.34 827.581 1197.61C847.973 1186.57 858.169 1180.62 878.561 1168.73C902.777 1168.3 915.097 1167.88 939.313 1166.6C959.28 1153.43 969.051 1146.63 988.594 1132.61C1015.78 1129.22 1029.38 1127.09 1056.14 1122.42C1055.29 1132.19 1055.29 1137.29 1054.44 1147.06C1031.93 1150.88 1020.88 1152.58 998.365 1155.56C978.398 1170 968.202 1176.8 948.234 1190.39C923.594 1191.67 911.274 1192.09 886.633 1192.52C866.241 1204.84 855.62 1210.78 835.228 1221.83C811.012 1220.56 798.692 1220.13 774.476 1218.01C753.659 1228.2 743.038 1232.88 722.221 1242.22C698.006 1238.82 686.11 1236.7 662.319 1232.45C641.077 1240.52 630.457 1244.35 609.215 1251.57C585.849 1246.05 573.953 1242.65 550.587 1236.27C529.345 1242.22 518.725 1244.77 497.483 1249.87C474.542 1241.8 463.071 1237.97 440.13 1229.05C418.888 1232.88 408.267 1234.57 387.025 1237.55C364.509 1227.35 353.463 1222.25 331.796 1211.21C312.679 1212.91 303.332 1213.33 284.215 1214.18C279.542 1204.41 276.993 1199.31 272.319 1189.54Z" fill="black"/>
<path d="M266.37 1294.05C288.886 1292.35 300.357 1291.5 323.298 1288.95C345.39 1299.15 356.435 1304.25 378.952 1313.59C399.769 1310.19 409.965 1308.07 430.782 1303.82C453.723 1311.89 465.194 1316.14 488.135 1323.36C508.952 1317.84 519.148 1314.87 539.54 1308.5C562.906 1314.44 574.802 1317.42 598.168 1322.52C618.56 1314.87 628.756 1311.04 649.573 1302.55C673.364 1306.37 685.259 1308.07 709.475 1311.04C729.867 1301.27 739.638 1296.6 760.03 1286.4C784.246 1288.1 796.566 1288.53 820.782 1289.38C840.749 1277.91 850.52 1271.96 870.488 1259.64C895.128 1258.79 907.024 1258.36 931.664 1256.67C950.782 1243.07 960.553 1236.27 979.671 1222.25C1006.86 1218.43 1020.46 1216.31 1047.64 1211.21C1047.22 1220.98 1047.22 1225.65 1046.79 1235.42C1024.28 1239.67 1013.23 1241.37 990.716 1244.77C971.174 1259.21 961.403 1266.44 941.86 1280.03C917.22 1282.16 904.475 1282.58 879.834 1283.43C859.867 1295.75 849.671 1302.12 829.703 1313.59C805.063 1313.17 792.743 1312.74 768.102 1311.04C747.71 1321.67 737.514 1326.34 717.122 1336.11C692.906 1333.14 680.586 1331.44 656.37 1327.61C635.553 1336.11 625.357 1339.93 604.54 1347.58C580.749 1342.48 568.854 1339.51 545.063 1333.56C524.246 1339.93 513.625 1342.91 492.808 1348.43C469.442 1341.21 457.971 1337.38 434.605 1328.89C413.788 1333.14 403.167 1335.26 382.351 1338.66C359.834 1329.31 348.364 1324.21 325.847 1314.02C307.154 1316.14 297.808 1316.99 279.115 1318.27C274.017 1308.92 271.468 1303.82 266.37 1294.05Z" fill="black"/>
<path d="M259.574 1397.71C282.091 1395.59 293.136 1394.31 315.653 1391.34C338.169 1401.11 349.64 1405.78 372.156 1414.71C392.548 1410.46 402.744 1408.33 423.136 1403.66C446.502 1411.31 457.973 1415.13 481.339 1421.93C501.731 1415.98 511.502 1412.58 531.895 1405.78C555.685 1411.31 567.581 1413.86 591.372 1418.53C611.339 1410.46 621.535 1406.21 641.502 1397.71C665.718 1401.11 677.613 1402.39 701.829 1404.93C721.796 1395.16 731.568 1390.06 751.11 1379.44C775.751 1380.72 787.646 1380.72 812.287 1381.14C831.829 1369.25 841.176 1363.3 860.718 1350.98C885.359 1349.71 897.679 1348.86 922.319 1346.73C941.012 1333.14 950.359 1325.91 969.051 1311.89C996.241 1307.65 1010.26 1305.52 1037.45 1300C1037.45 1309.35 1037.45 1314.44 1037.88 1323.79C1015.36 1328.04 1004.31 1330.16 981.797 1333.56C962.679 1348.01 953.332 1355.23 934.215 1369.25C909.149 1371.8 896.829 1372.65 871.764 1373.92C852.221 1386.67 842.45 1392.61 822.908 1404.93C798.267 1404.93 785.522 1404.51 760.881 1403.66C740.914 1414.28 731.143 1419.8 710.751 1429.57C686.11 1427.45 673.79 1425.75 649.574 1422.78C629.182 1431.7 618.986 1435.95 599.019 1444.02C574.803 1439.35 562.908 1436.8 538.692 1431.27C518.3 1438.07 508.104 1441.47 487.712 1447.42C463.921 1440.62 452.45 1437.22 428.659 1429.57C408.267 1434.67 397.646 1436.8 377.254 1441.05C354.313 1432.12 342.842 1427.45 319.901 1417.68C301.208 1420.23 292.287 1421.5 273.594 1423.2C268.496 1412.58 265.522 1407.48 259.574 1397.71Z" fill="black"/>
</g>
<path d="M1152.16 1453.37C833.103 1454.22 384.475 1457.61 70.0964 1456.76C63.7238 1456.76 58.201 1450.82 59.4755 1444.44C74.7696 1353.1 96.0114 1263.46 126.6 1175.95C158.462 1082.48 203.07 1010.26 285.064 952.484C322.874 925.294 365.358 906.176 408.691 890.882C422.711 885.359 437.155 879.412 452.449 875.163L456.698 878.137V877.712C456.698 875.588 452.449 874.314 453.724 874.739V874.314C454.149 873.464 454.998 873.039 455.423 872.19C460.096 867.092 466.894 865.392 473.691 864.967C480.913 864.118 488.136 863.268 495.783 862.418C525.096 859.02 554.835 858.17 584.574 861.144C614.312 864.542 642.776 870.065 671.665 876.438C713.299 885.784 754.508 899.379 795.292 911.699L796.567 912.124H796.992C796.992 912.124 797.417 912.124 796.992 912.124C796.992 912.124 796.567 912.124 796.142 912.124C795.717 912.124 795.293 912.124 794.868 912.549H797.842C853.92 927.418 902.351 959.706 949.083 993.268C972.025 1010.26 994.541 1027.68 1016.63 1045.95C1039.57 1063.79 1057.42 1088.43 1071.44 1113.92C1099.05 1164.48 1116.04 1220.13 1129.21 1275.78C1141.11 1328.04 1149.61 1381.14 1155.13 1434.25L1155.55 1439.77L1155.98 1442.32V1443.59C1155.13 1447.42 1153.85 1451.24 1152.16 1453.37ZM1136.01 1438.5C1134.31 1440.2 1132.61 1443.59 1133.04 1445.72V1445.29V1444.02V1441.47C1125.82 1359.48 1112.22 1277.48 1086.73 1199.31C1069.31 1148.33 1046.8 1094.38 1004.31 1059.97C961.404 1024.28 916.796 989.02 868.364 960.98C844.149 947.386 819.083 935.065 793.168 928.268L799.541 927.843C798.691 928.693 794.868 928.693 794.443 928.268C769.377 923.17 734.966 910 710.325 901.928C675.913 890.458 640.227 884.51 604.116 881.536C568.43 878.137 532.743 881.111 497.482 884.935C490.26 885.784 483.038 886.209 476.24 887.059C468.593 888.758 460.521 888.333 453.724 882.81C453.724 882.81 453.724 882.81 453.299 882.81H452.874C453.724 883.235 449.476 881.961 449.9 879.837V879.412L454.149 882.386C439.704 886.209 426.109 893.007 411.665 898.529C397.645 904.477 383.201 909.15 369.181 915.523C314.377 940.163 264.247 976.699 224.737 1022.58C184.377 1068.04 160.587 1124.12 141.469 1181.47C113.005 1267.71 93.4624 1357.78 80.7173 1447.42L70.0964 1435.1C378.103 1435.52 823.332 1436.8 1136.01 1438.5Z" fill="black"/>
<path d="M279.965 1446.14L260.848 1288.53" stroke="#544D4D" stroke-width="3" stroke-miterlimit="10" stroke-linecap="round" stroke-linejoin="round"/>
<path d="M1022.16 1235C1022.16 1235 1009.41 1266.01 1013.23 1297.03C1017.06 1328.04 1028.1 1373.5 1012.38 1446.14" stroke="#544D4D" stroke-width="3" stroke-miterlimit="10" stroke-linecap="round" stroke-linejoin="round"/>
<path d="M378.529 894.706C386.601 892.157 400.62 894.706 404.869 901.928C421.437 929.118 461.372 1008.56 477.941 1166.18C491.111 1289.38 471.143 1511.14 471.143 1511.14L58.627 1491.6C58.627 1491.6 101.535 1338.66 137.647 1198.46C157.189 1122.84 163.562 1013.66 217.516 973.301C260.849 941.013 314.803 916.797 378.529 894.706Z" fill="black"/>
<path d="M805.916 920.621C805.916 920.621 937.191 1167.45 898.955 1497.12H1182.32C1182.32 1497.12 1172.13 1461.01 1136.44 1309.35C1105 1176.8 1073.14 1062.94 1040 1031.93C953.334 950.359 830.557 910 830.557 910C830.557 910 816.537 916.797 805.916 920.621Z" fill="black"/>
<path d="M805.915 920.621L795.719 917.647C795.719 917.647 810.588 910.425 816.961 906.176L820.784 904.052C820.784 904.052 841.176 913.399 848.398 916.797C855.621 920.196 823.333 935.915 823.333 935.915C823.333 935.915 807.189 921.046 805.915 920.621Z" fill="#7E5D6D"/>
<path d="M473.267 1126.67C473.267 1126.67 458.823 1085.46 426.11 1048.92C395.947 1014.93 340.718 962.255 336.894 950.36C334.345 942.288 337.744 927.418 345.391 910C361.535 873.039 397.646 824.608 445.228 802.941C560.783 762.157 578.627 834.804 580.326 857.745C580.751 864.118 453.725 891.732 454.149 898.105V898.529C454.149 898.529 434.607 904.902 448.627 1002.19C452.025 1025.98 466.895 1067.61 473.267 1126.67Z" fill="white"/>
<path d="M474.542 1133.04C471.568 1133.46 467.744 1131.34 466.895 1128.37L466.47 1127.52L466.045 1126.24C457.124 1103.73 444.803 1082.48 429.934 1063.37C399.771 1025.98 362.385 995.817 333.496 957.157C332.646 955.882 331.797 954.608 331.372 952.908C327.548 939.739 333.071 925.719 337.32 913.824C358.137 864.542 394.248 820.359 443.104 797.418C455.424 793.17 468.594 789.346 481.764 787.222C508.104 782.549 538.692 783.823 560.359 802.091C576.927 816.111 585.424 836.503 587.548 857.745C587.973 861.993 583.725 864.967 580.751 866.667C542.941 881.111 498.758 887.908 460.947 901.928C460.522 902.353 459.673 902.353 459.673 902.778C459.673 902.778 459.673 902.778 460.522 901.928C460.947 901.078 461.797 899.804 461.797 898.529C461.797 897.68 461.797 898.954 461.797 898.954L457.548 904.902C457.973 904.902 458.398 904.477 458.398 904.477C458.398 904.477 457.973 904.902 457.973 905.327C454.15 911.274 453.3 918.922 452.45 926.144C451.176 940.163 451.601 954.608 452.875 968.627L454.15 983.072C456.699 1012.39 465.62 1039.15 471.568 1068.04C474.542 1082.48 477.091 1096.93 479.215 1111.37C479.64 1114.35 480.065 1118.17 480.065 1121.57C478.365 1125.39 476.241 1129.22 474.542 1133.04ZM471.993 1120.29C470.718 1118.59 468.169 1117.32 466.47 1117.32C466.045 1117.32 465.62 1116.9 465.62 1116.47L465.195 1113.07C460.522 1074.41 447.777 1037.88 441.405 998.791C440.555 991.569 438.856 976.699 438.006 969.477C436.731 946.961 434.182 922.745 443.529 901.078C445.653 897.255 446.927 894.281 452.026 892.157L447.352 898.529C447.352 898.105 447.352 897.68 447.352 897.68C447.352 895.131 449.901 892.157 451.601 890.882C463.071 884.935 475.392 882.386 487.712 878.562C514.901 870.49 549.738 863.268 575.653 853.072C575.653 853.072 575.653 853.072 574.803 853.922L574.378 854.346C573.954 854.771 573.529 855.621 573.529 856.471C573.529 856.895 573.529 857.745 573.529 857.745C572.254 840.327 564.607 822.059 551.012 811.013C532.32 795.294 506.405 794.869 483.039 798.693C471.568 800.392 456.699 805.065 447.352 808.039C416.764 821.634 390.849 845 370.457 871.765C355.588 892.157 341.568 915.098 338.169 940.163C336.47 949.085 342.843 955.033 347.941 961.405C367.483 983.922 398.921 1014.51 419.738 1036.18C443.954 1060.82 464.346 1090.13 477.941 1121.57L478.365 1122.42C478.365 1121.14 474.542 1119.44 471.993 1120.29Z" fill="black"/>
<path d="M880.259 1139.84C880.259 1139.84 851.795 1029.38 837.776 994.117C823.756 959.28 797.416 919.771 796.142 917.646C755.782 852.222 757.057 823.757 770.227 812.287C783.397 800.816 815.259 802.941 873.887 854.346C884.508 866.241 947.808 937.614 954.606 976.699C958.429 998.365 946.534 1013.66 930.39 1036.18C913.822 1059.12 893.429 1089.28 880.259 1139.84Z" fill="white"/>
<path d="M880.261 1139.84C865.816 1093.1 852.647 1045.1 835.228 999.216C824.183 972.451 808.464 947.386 792.32 923.17C776.601 897.255 760.032 870.49 755.784 839.902C751.96 811.013 772.777 794.445 800.392 801.667C830.555 809.739 854.771 830.131 877.712 849.673C896.405 870.49 914.248 891.732 930.392 915.098C949.934 945.262 975 980.523 950.784 1015.36C939.738 1032.78 925.718 1048.5 914.673 1065.92C899.803 1088.86 888.333 1113.5 880.261 1139.84ZM880.261 1133.46C879.411 1131.34 878.137 1130.92 877.287 1129.64C878.562 1125.82 879.836 1121.99 881.111 1118.59C934.64 980.948 1017.91 1020.46 868.79 859.02C850.098 843.301 823.758 821.634 797.418 814.837C778.3 810.164 766.405 818.66 768.954 838.628C776.601 887.059 812.712 924.869 833.104 968.203C851.372 1003.89 860.294 1042.97 871.339 1081.21C873.888 1090.56 880.686 1115.2 882.81 1124.12C883.66 1127.09 885.359 1133.46 886.209 1136.86V1137.29C885.359 1134.74 881.96 1133.04 880.261 1133.46Z" fill="black"/>
<path d="M777.448 1043.4C768.526 1087.16 710.748 1113.5 613.461 1073.99C512.35 1033.2 468.592 935.915 457.546 907.026C517.448 794.869 475.814 717.124 475.814 717.124C613.886 705.229 734.539 866.667 734.539 866.667L753.232 946.536C754.932 953.333 758.33 959.281 763.428 963.529C772.35 979.248 782.971 1015.36 777.448 1043.4Z" fill="white"/>
<path d="M455.423 908.301C463.495 895.98 468.593 881.536 471.992 867.516C478.364 838.203 480.489 808.464 480.913 778.725V767.68C479.639 756.634 475.815 745.163 471.567 734.967C466.044 721.373 486.011 712.876 492.384 726.471C493.234 728.17 493.234 731.144 493.234 732.843C494.508 790.621 497.057 864.967 460.521 912.974C457.972 915.523 452.874 911.699 455.423 908.301Z" fill="black"/>
<path d="M739.212 865.817C745.585 869.641 747.709 874.739 748.559 879.837C751.108 890.033 750.258 901.079 752.807 911.7C754.931 921.896 761.304 931.667 763.003 942.288C765.128 953.334 771.5 976.7 774.049 988.17C774.899 990.719 773.199 993.693 770.226 994.118C768.526 994.543 767.252 994.118 765.977 993.268C760.454 988.595 757.905 983.922 754.507 977.974C748.984 967.778 745.16 958.432 741.762 946.961C738.788 936.765 740.062 925.719 737.513 915.098C735.389 904.902 729.441 895.131 727.317 884.51C726.043 879.412 725.618 873.889 729.441 867.517C731.99 864.968 736.239 864.118 739.212 865.817Z" fill="black"/>
<path d="M769.802 977.974C688.658 973.725 622.384 948.235 557.809 833.104C612.188 881.111 676.338 899.379 743.887 907.876L752.809 946.961C754.508 953.758 764.704 973.725 769.802 977.974Z" fill="black"/>
<path d="M766.405 962.255C780.85 989.444 789.347 1023.43 780.425 1053.59C773.628 1074.84 754.085 1090.56 732.843 1096.5C683.562 1109.67 626.634 1088.86 582.876 1065.49C528.922 1035.33 488.987 984.771 463.497 929.542C461.798 925.294 467.745 921.895 470.294 926.144C479.216 943.987 489.412 961.405 500.882 977.124C512.353 993.268 525.523 1008.14 540.392 1021.31C583.726 1060.39 642.353 1084.61 700.981 1084.61C761.307 1082.91 784.249 1051.05 770.229 992.418C768.105 983.072 764.706 973.301 760.033 965.229C757.484 961.83 763.856 958.006 766.405 962.255Z" fill="black"/>
<path d="M930.816 452.026C938.463 487.712 912.973 525.948 912.973 621.111C912.973 718.399 895.129 824.183 821.633 897.68C758.332 960.98 685.685 958.431 600.293 891.732C588.397 882.386 546.763 850.948 536.142 840.327C523.822 828.007 517.025 819.085 511.077 809.739C505.979 801.242 507.254 751.961 500.031 740.49C481.339 709.477 477.515 743.039 453.299 715.85C419.737 679.314 379.378 605.817 399.345 475.817C431.633 265.098 598.593 240.458 722.221 263.824C846.698 287.614 910.424 358.137 930.816 452.026Z" fill="white"/>
<path d="M474.541 753.66C464.77 737.516 452.449 723.072 440.979 708.202C429.508 692.484 420.162 675.915 412.515 658.072C369.181 553.137 375.554 415.915 452.449 327.549C505.129 267.222 588.397 247.255 664.868 251.503C741.338 256.176 820.783 275.719 877.286 330.948C909.998 362.81 930.815 405.294 940.162 449.477C943.136 463.497 941.011 478.791 937.613 491.961C927.842 528.921 918.495 564.183 917.645 602.418C918.07 659.346 916.371 717.549 899.802 772.353C887.907 808.889 873.887 845.425 851.796 877.287C828.855 909.575 794.443 935.49 754.933 943.137C675.489 959.281 601.142 909.15 548.462 854.771C546.338 852.222 549.312 849.248 551.861 850.948C582.024 873.889 613.038 895.131 646.6 909.575C743.462 954.183 823.757 912.974 866.24 819.51C901.926 751.536 912.123 678.039 909.149 601.993C909.149 582.876 909.998 563.758 912.547 544.64C915.096 517.026 924.443 489.412 924.018 462.222C916.796 418.039 896.404 375.555 865.815 342.843C793.168 265.948 653.822 243.431 556.109 278.268C440.979 319.052 409.966 435.033 403.593 545.915C399.345 612.189 418.887 677.189 469.018 722.647L488.985 743.464C495.783 752.81 481.338 763.856 474.541 753.66Z" fill="black"/>
<path d="M524.672 618.562C524.672 618.562 511.502 554.837 449.476 562.484C395.946 569.281 377.254 697.582 498.757 733.268" fill="white"/>
<path d="M493.234 677.614C483.463 672.092 476.666 662.745 476.241 651.275C476.666 642.778 477.94 633.007 475.816 624.51C474.541 616.438 466.045 614.314 459.672 614.739C452.875 616.013 448.626 624.51 447.352 631.307C447.352 631.732 446.927 633.007 446.927 633.431C446.502 635.556 443.103 635.556 442.254 633.431C436.731 616.863 449.051 598.595 466.894 600.719C491.96 602.418 495.358 628.758 490.685 648.726C488.136 657.222 491.535 664.869 496.208 672.092L497.058 673.366C499.182 675.915 495.783 679.314 493.234 677.614Z" fill="black"/>
<path d="M833.103 573.529C839.476 603.693 851.371 631.732 866.241 658.072C879.411 690.359 845.424 720.947 815.26 719.673C811.862 719.673 811.437 715 814.411 714.15C833.528 708.202 850.947 695.457 853.92 675.915C855.195 669.967 853.496 664.869 850.522 659.771C836.502 633.431 828.005 603.268 830.13 573.529C830.13 571.405 833.103 571.405 833.103 573.529Z" fill="black"/>
<path d="M522.549 618.987C512.777 593.921 491.536 570.13 463.072 570.555C460.523 570.13 456.274 570.98 453.725 570.98C446.503 571.405 440.555 573.954 435.032 579.052C407.843 606.241 412.516 654.248 434.608 684.411C442.255 695.032 452.026 704.379 463.072 712.026C474.117 719.673 486.438 725.621 499.608 730.719C502.581 731.568 501.307 736.241 498.333 735.817C469.869 729.869 442.679 715.849 423.987 692.483C395.098 657.647 389.15 599.444 423.562 565.457C431.209 558.66 441.83 553.562 452.451 553.562C455.849 553.562 460.947 552.712 464.346 553.562C482.189 554.411 499.183 563.333 510.228 577.353C520 589.248 525.523 603.692 527.222 618.137C527.222 620.686 523.398 621.536 522.549 618.987Z" fill="black"/>
<path d="M791.044 760.457C791.469 767.255 786.371 779.15 777.024 787.647C729.018 758.333 707.351 773.627 707.351 773.627C690.358 747.712 694.181 712.451 735.39 739.215C763.854 757.908 781.697 760.882 791.044 760.457Z" fill="black"/>
<path d="M776.599 788.072C766.403 796.993 751.109 802.516 730.292 794.019C720.521 790.196 712.873 782.549 706.926 774.052C707.351 774.052 728.592 758.758 776.599 788.072Z" fill="white"/>
<path d="M799.116 759.183C799.116 759.183 781.273 768.954 735.39 739.64C680.586 704.379 691.632 778.3 730.292 794.019C770.652 810.588 791.469 774.477 791.044 760.882" stroke="black" stroke-width="3" stroke-miterlimit="10" stroke-linecap="round" stroke-linejoin="round"/>
<path d="M707.354 774.052C707.354 774.052 729.02 758.758 777.027 788.072" stroke="black" stroke-width="3" stroke-miterlimit="10" stroke-linecap="round" stroke-linejoin="round"/>
<path d="M694.607 586.7C694.607 587.125 694.607 587.549 694.607 587.549L694.182 599.445C693.758 609.641 685.261 617.288 675.065 616.863C664.869 616.438 657.222 607.517 658.071 597.746L658.496 585.85C658.496 583.726 659.346 581.177 660.196 579.478L694.182 581.177C694.182 582.876 694.607 584.576 694.607 586.7Z" fill="black"/>
<path d="M872.187 596.046L871.763 607.092C871.338 616.438 863.266 623.66 853.919 623.236C844.573 622.811 837.351 614.739 837.776 605.392L838.2 594.347C838.2 592.222 838.625 590.098 839.475 588.399L871.338 589.673C871.763 591.798 872.187 593.922 872.187 596.046Z" fill="black"/>
<path d="M737.09 528.497C746.436 529.771 753.658 520 750.26 510.654C748.56 505.556 745.586 500.883 740.913 497.909C726.469 488.987 672.514 488.137 644.05 508.53C618.56 527.222 694.606 522.549 737.09 528.497Z" fill="black"/>
<path d="M854.769 533.17C847.122 533.17 842.449 523.399 846.273 515.327C848.397 511.079 851.371 507.255 855.619 505.131C868.789 498.758 904.05 502.582 919.769 524.249C933.789 543.366 890.031 532.745 854.769 533.17Z" fill="black"/>
<path d="M721.793 586.699L651.695 585.425C643.199 585 643.623 572.255 652.12 572.68L722.218 577.778C728.166 578.203 727.741 586.699 721.793 586.699Z" fill="black"/>
<path d="M890.032 593.921L838.202 594.771C829.706 594.771 829.281 582.451 837.777 582.026C838.202 582.026 838.202 582.026 838.627 582.026L890.457 587.549C894.281 587.974 893.856 593.496 890.032 593.921Z" fill="black"/>
<path d="M884.933 169.509C799.966 182.255 752.809 226.862 729.018 224.738C538.691 206.045 450.325 276.143 425.26 298.66C389.998 329.673 361.534 454.575 363.659 524.673C366.208 622.385 444.377 728.594 448.201 733.268C474.116 764.281 480.489 805.065 486.861 782.549C488.985 775.326 483.038 737.091 485.162 728.594C378.953 687.81 398.07 569.281 449.9 562.483C504.279 555.686 521.273 604.117 524.247 616.013C524.247 616.013 525.946 651.274 532.319 661.47C538.691 671.666 580.75 688.66 580.75 688.66C580.75 688.66 576.927 617.287 576.077 610.065C575.227 602.843 538.691 589.248 532.319 511.503C529.77 453.725 542.09 347.941 698.855 419.738C735.815 436.732 818.234 457.549 898.528 447.353C898.528 447.353 993.266 451.601 1037.45 367.059C1081.63 282.941 1004.31 151.242 884.933 169.509Z" fill="black"/>
<path d="M582.024 698.431C582.024 698.431 542.515 675.065 539.116 678.039C535.717 680.588 585.423 709.052 582.024 698.431Z" fill="black"/>
<path d="M582.025 704.804C582.025 704.804 556.11 693.333 552.287 695.457C548.038 697.581 586.699 716.699 582.025 704.804Z" fill="black"/>
<path d="M863.268 774.052C832.255 779.15 816.536 761.307 810.589 752.81C799.968 774.052 774.478 792.32 723.497 783.399C657.223 771.928 656.373 712.026 656.373 712.026C677.19 734.118 703.955 717.549 740.916 703.954C784.674 688.235 804.641 703.104 811.438 711.601C812.288 710.752 821.634 721.372 840.752 701.405C845 697.157 852.648 704.804 859.02 710.327C880.262 729.869 890.458 732.418 898.105 720.948C898.105 721.372 899.804 768.104 863.268 774.052Z" fill="black"/>
</g>
<defs>
<clipPath id="clip0_409_3769">
<rect width="1300" height="1300" fill="white"/>
</clipPath>
</defs>
</svg>
