<svg width="1300" height="1300" viewBox="0 0 1300 1300" fill="none" xmlns="http://www.w3.org/2000/svg">
<g clip-path="url(#clip0_409_3759)">
<path d="M1003.04 1182.75C1000.07 1184.87 996.668 1186.99 993.694 1189.12C990.295 1191.24 987.321 1193.37 983.923 1195.07C980.949 1196.76 978.4 1198.46 975.426 1200.16C975.001 1200.59 974.576 1200.59 974.151 1201.01C964.38 1206.96 954.184 1212.48 943.988 1217.58C941.014 1219.28 937.615 1220.98 934.641 1222.26C934.641 1222.26 934.217 1222.68 933.792 1222.68C930.393 1224.38 926.994 1226.08 923.596 1227.78C916.798 1231.18 909.576 1234.15 902.779 1237.12C899.38 1238.82 895.556 1240.1 892.158 1241.37C888.759 1242.65 884.936 1244.35 881.537 1245.62C878.138 1246.9 874.315 1248.59 870.916 1249.87C870.916 1249.87 870.916 1249.87 870.491 1249.87C867.092 1251.14 863.269 1252.42 859.87 1253.69C852.223 1256.24 844.151 1258.79 836.504 1261.34C833.955 1262.19 830.981 1263.04 828.432 1263.89C820.36 1266.44 812.289 1268.56 804.217 1270.26C801.243 1271.11 798.269 1271.54 794.87 1272.39C787.223 1274.09 779.151 1275.78 771.504 1277.48C769.805 1277.91 768.53 1277.91 766.831 1278.33C764.282 1278.76 761.308 1279.18 758.759 1279.61C754.936 1280.03 751.537 1280.88 747.713 1281.31C746.014 1281.73 744.315 1281.73 742.615 1282.16C740.491 1282.58 737.942 1283.01 735.393 1283.01C728.596 1283.86 721.373 1284.71 714.576 1285.56C712.452 1285.98 709.903 1285.98 707.779 1286.41H707.354C704.38 1286.83 701.406 1286.83 698.432 1287.25C695.458 1287.68 692.485 1287.68 689.511 1287.68C687.811 1287.68 685.687 1288.1 683.988 1288.1C680.589 1288.1 677.615 1288.53 674.642 1288.53C670.393 1288.53 666.57 1288.95 662.321 1288.95C658.073 1288.95 654.249 1288.95 650.001 1288.95C647.027 1288.95 644.053 1288.95 641.079 1288.95C461.798 1286.41 300.785 1210.36 185.655 1089.71C185.655 1089.71 185.655 1089.28 185.23 1089.28C172.485 1077.81 183.53 1016.63 234.936 977.974C299.511 929.118 454.151 898.53 454.151 898.53C454.151 898.53 514.053 888.758 736.243 935.066C866.243 962.255 965.23 1001.76 1020.46 1108.82C1031.93 1130.92 1043.4 1164.9 1003.04 1182.75Z" fill="white"/>
<path d="M737.517 930.392C819.086 946.961 906.177 964.804 973.301 1018.76C995.818 1037.03 1010.69 1063.79 1023.01 1089.71C1028.96 1102.45 1034.9 1115.62 1039.58 1129.64C1042.12 1138.99 1045.95 1149.61 1043.82 1160.65C1043.4 1163.63 1040.85 1167.45 1038.73 1169.58C1028.96 1179.35 1018.33 1185.29 1007.71 1192.94C945.262 1236.27 873.465 1266.86 799.118 1283.01C633.432 1319.12 454.151 1291.08 308.432 1203.99C260.001 1174.67 215.393 1138.99 177.158 1096.93C172.909 1091.83 172.909 1083.33 172.909 1077.81C173.334 1065.07 176.733 1052.75 180.981 1041.27C191.177 1014.93 204.347 988.595 226.863 970.327C243.007 959.281 260.426 949.935 278.269 942.288C334.347 918.497 393.399 901.928 454.151 895.131C459.249 894.706 460.099 901.928 455.001 902.778C396.798 914.673 339.02 932.516 285.066 956.732C265.524 966.503 244.707 975 228.988 990.294C214.118 1006.44 203.497 1026.41 195.001 1046.8C189.478 1059.12 185.654 1078.66 187.354 1088.43C214.118 1120.29 245.556 1148.33 279.543 1172.55C465.622 1302.55 748.138 1311.05 946.112 1202.71C963.955 1192.94 981.373 1181.9 997.942 1170.42C1006.01 1164.9 1014.51 1160.23 1020.88 1153.86C1021.31 1153.43 1020.88 1153.86 1020.88 1154.28C1020.88 1154.71 1020.46 1155.13 1020.46 1155.13C1020.88 1150.03 1019.18 1143.24 1017.06 1136.44C1009.41 1111.8 997.092 1085.88 983.922 1063.37C963.105 1029.8 927.844 1008.56 892.158 991.569C867.517 980.098 841.602 971.177 815.262 962.68C788.922 954.183 762.158 946.961 735.393 940.588C728.596 938.889 730.72 929.118 737.517 930.392Z" fill="black"/>
<path d="M378.532 894.706C378.532 894.706 440.558 870.065 452.029 869.216L452.879 878.987C452.879 878.987 403.598 900.229 400.624 903.628C398.075 906.601 378.532 894.706 378.532 894.706Z" fill="#7E5D6D"/>
<path d="M1144.09 1446.14H69.6748C69.6748 1446.14 76.0473 1249.02 140.623 1108.4C189.479 1002.19 306.734 932.091 392.126 901.503C416.341 893.006 435.034 883.66 452.453 878.987C452.453 881.111 453.727 896.83 453.727 898.529C453.727 898.529 503.433 824.608 655.1 832.679C725.198 836.503 781.276 855.621 781.276 855.621C789.348 853.921 777.877 895.555 785.1 893.431C787.649 892.581 792.747 918.072 794.871 917.222C849.675 931.666 916.799 972.451 1014.09 1054.02C1124.54 1146.63 1144.09 1446.14 1144.09 1446.14Z" fill="black"/>
<path d="M937.191 1014.08C964.643 1014.08 986.897 991.831 986.897 964.379C986.897 936.927 964.643 914.673 937.191 914.673C909.739 914.673 887.485 936.927 887.485 964.379C887.485 991.831 909.739 1014.08 937.191 1014.08Z" fill="#FFFF8D"/>
<path d="M279.968 1446.14L260.851 1288.53" stroke="#544D4D" stroke-width="3" stroke-miterlimit="10" stroke-linecap="round" stroke-linejoin="round"/>
<path d="M1022.16 1235C1022.16 1235 1009.41 1266.01 1013.23 1297.03C1017.06 1328.04 1028.1 1373.5 1012.38 1446.14" stroke="#544D4D" stroke-width="3" stroke-miterlimit="10" stroke-linecap="round" stroke-linejoin="round"/>
<path d="M378.529 894.708C386.601 892.159 400.62 894.708 404.869 901.93C421.437 929.12 461.372 1008.56 477.941 1166.18C491.111 1289.38 471.143 1511.15 471.143 1511.15L58.627 1491.6C58.627 1491.6 70.9472 1282.16 107.058 1141.54C142.745 1005.17 235.359 943.989 378.529 894.708Z" fill="white"/>
<path d="M375.557 885.785C389.576 881.961 406.57 885.36 414.217 898.53C437.158 937.19 451.603 980.524 463.073 1023.86C476.668 1076.96 485.59 1131.34 490.263 1185.72C497.06 1294.9 490.688 1403.24 482.191 1512.42C481.766 1518.37 476.668 1522.61 470.72 1522.19L58.2039 1502.65C52.2562 1502.65 47.583 1497.55 47.583 1491.18C51.8314 1429.15 58.2039 1367.97 66.2758 1306.37C75.1974 1244.77 84.5438 1183.6 101.962 1123.69C142.322 989.87 251.08 928.269 375.557 885.785ZM381.929 904.053C324.576 923.595 262.125 937.615 214.544 977.55C191.603 997.092 174.609 1023.43 158.465 1048.5C124.903 1099.05 113.008 1159.38 102.812 1218.86C87.0928 1309.35 77.7464 1401.11 70.0993 1492.45C70.0993 1492.45 59.4784 1480.98 59.9033 1480.98L472.42 1500.52L460.949 1510.29C464.348 1456.34 467.746 1402.39 469.446 1348.43C474.969 1215.03 467.746 1078.24 419.315 952.909C412.942 937.19 406.145 921.896 397.224 907.452C393.825 904.053 385.753 902.778 381.929 904.053Z" fill="black"/>
<path d="M805.916 920.62C805.916 920.62 937.191 1167.45 898.955 1497.12H1182.32C1182.32 1497.12 1181.05 1235.42 1117.32 1093.1C1053.6 951.209 830.557 909.575 830.557 909.575C830.557 909.575 816.537 916.797 805.916 920.62Z" fill="white"/>
<path d="M816.112 924.444C817.387 923.17 817.812 920.621 817.387 918.921V918.496C819.511 923.17 822.06 927.843 824.184 932.516C885.361 1068.89 915.099 1218.86 916.799 1367.97C917.223 1381.57 915.949 1410.46 915.524 1424.05C915.099 1446.14 911.276 1476.31 910.001 1498.4L899.38 1486.08H1182.75L1171.7 1497.12C1171.7 1465.69 1170 1433.82 1168.3 1402.39C1161.08 1295.75 1145.36 1110.95 1071.01 1031.93C1013.24 969.902 911.276 932.516 828.857 920.196L835.655 919.346C829.707 922.32 822.91 925.294 816.962 927.843L813.563 929.117L812.714 929.542C813.988 929.117 815.687 926.568 816.112 924.444ZM795.72 916.797C797.419 913.823 801.243 910.424 805.067 909.15L808.04 907.875C813.988 905.326 820.361 902.353 826.308 899.379C828.433 898.529 830.557 898.104 832.681 898.954C848.825 903.627 864.119 908.3 879.413 913.398C894.707 918.921 909.576 924.444 924.446 930.817C968.629 949.934 1011.96 972.451 1048.92 1003.04C1078.66 1027.25 1108.4 1054.02 1124.97 1089.71C1155.13 1158.1 1169.15 1232.03 1179.35 1305.52C1188.27 1369.25 1192.52 1432.97 1193.37 1497.12C1193.37 1503.07 1188.69 1508.17 1182.32 1508.17H898.955C892.583 1508.17 887.485 1502.22 888.335 1495.85C890.034 1473.76 893.433 1444.44 893.857 1422.78C894.282 1409.61 895.557 1380.72 895.132 1367.97C894.282 1240.1 870.491 1111.8 825.459 991.993C817.387 970.751 808.465 949.509 798.694 929.542C796.145 926.143 794.87 920.621 795.72 916.797Z" fill="black"/>
<path d="M805.915 920.62L795.719 917.646C795.719 917.646 810.588 910.424 816.961 906.175L820.784 904.051C820.784 904.051 841.176 913.398 848.398 916.796C855.621 920.195 823.333 935.914 823.333 935.914C823.333 935.914 807.189 921.045 805.915 920.62Z" fill="#7E5D6D"/>
<path d="M343.269 1040.42C343.269 1040.42 284.641 1081.63 290.164 1125.39C295.687 1169.15 476.242 1443.17 476.242 1443.17C476.242 1443.17 497.484 1294.48 473.269 1126.24C473.269 1126.24 455.85 1102.88 423.987 1079.51C402.746 1064.64 375.981 1049.35 343.269 1040.42Z" fill="white"/>
<path d="M345.393 1051.47C346.668 1051.47 347.942 1050.62 349.217 1049.77L348.367 1050.2C324.151 1065.49 294.413 1093.1 296.537 1124.12C299.086 1137.29 306.308 1150.46 312.681 1162.78C326.275 1188.69 341.145 1214.18 356.439 1239.67C387.027 1290.23 419.315 1339.93 452.452 1388.79L486.014 1437.65L466.047 1441.9C469.445 1416.4 471.57 1390.07 472.844 1363.73C477.092 1285.13 474.119 1206.11 463.073 1128.37L465.197 1133.46C449.478 1113.92 429.936 1096.93 409.543 1082.91C390.426 1070.16 370.034 1059.97 347.942 1053.17L347.092 1052.74C345.818 1052.32 345.818 1051.9 345.393 1051.47ZM341.57 1029.8C345.393 1030.23 350.066 1031.08 353.89 1032.35C390.851 1043.82 424.838 1064.22 453.726 1090.13C464.347 1099.48 473.269 1108.82 482.615 1120.29C483.89 1121.57 484.315 1123.27 484.739 1124.97C495.785 1204.41 498.759 1284.71 494.936 1365C493.661 1391.76 491.537 1418.1 488.138 1445.29C487.289 1455.49 473.269 1458.46 468.171 1449.54C439.707 1401.96 404.87 1344.61 376.831 1297.03C358.988 1266.44 333.923 1224.8 317.354 1194.22C308.007 1176.8 298.236 1159.38 291.014 1140.69C288.04 1133.89 286.341 1125.39 286.341 1117.32C289.315 1083.33 313.955 1056.99 336.472 1033.2C336.896 1031.5 339.445 1030.23 341.57 1029.8Z" fill="black"/>
<path d="M1029.38 1125.82C1031.08 1098.63 968.204 1054.45 968.204 1054.45C943.138 1061.67 925.295 1073.14 912.55 1085.46C884.086 1112.22 880.263 1142.39 880.263 1142.39L881.962 1150.03C912.125 1281.31 903.204 1452.09 903.204 1452.09C903.204 1452.09 1027.68 1153.01 1029.38 1125.82Z" fill="white"/>
<path d="M1024.28 1125.39C1022.16 1100.33 982.646 1074.41 961.829 1063.37L971.176 1065.07C932.941 1075.69 898.954 1104.15 890.882 1144.09L890.457 1139.84C896.405 1165.33 901.503 1191.67 904.476 1217.58C914.673 1295.75 916.797 1373.92 913.823 1452.52C913.823 1452.94 893.006 1447.84 893.006 1447.84C914.673 1402.39 943.137 1334.84 963.104 1287.68C974.574 1260.92 985.195 1233.73 995.816 1206.54C1006.01 1179.77 1017.91 1153.01 1024.28 1125.39ZM1031.93 1125.82C1029.38 1140.69 1023.86 1154.28 1019.18 1168.3C1004.74 1209.51 988.169 1250.29 973.3 1291.5C959.28 1328.89 933.365 1398.14 920.195 1435.1L912.973 1455.92C908.725 1467.81 890.882 1463.99 892.156 1451.24C895.13 1374.35 893.006 1296.6 882.81 1220.13C879.836 1194.64 874.738 1169.58 869.215 1144.93C868.365 1140.26 870.065 1135.59 871.339 1131.34C883.659 1088.01 922.744 1055.72 965.228 1044.25C968.627 1042.97 972.025 1043.82 974.574 1045.95C984.346 1056.99 999.215 1071.44 1008.56 1082.91C1018.33 1094.8 1031.93 1108.4 1031.93 1125.82Z" fill="black"/>
<path d="M880.265 1139.84C880.265 1139.84 851.801 1029.38 837.782 994.118C823.762 959.282 797.422 919.772 796.148 917.648C706.507 833.105 542.52 833.105 574.383 801.667C609.644 766.831 755.788 790.622 808.893 816.962C856.474 842.027 1057.85 958.857 1064.64 997.942C1071.44 1041.28 906.605 1038.73 880.265 1139.84Z" fill="white"/>
<path d="M880.263 1150.88C875.59 1150.46 870.492 1146.21 869.217 1141.54V1141.11L868.793 1139.41L867.943 1136.01L866.243 1128.79C855.198 1086.31 844.577 1041.7 830.132 1000.49C819.936 973.3 805.067 947.81 789.348 922.745L790.623 924.019C775.328 909.15 757.06 897.255 738.368 886.634C699.708 865.817 657.649 852.647 615.59 840.327C601.145 834.804 565.884 828.856 563.76 811.013C563.76 792.32 592.649 784.248 606.243 781.699C662.322 773.202 719.675 783.398 773.629 798.268C787.224 802.516 800.819 807.189 813.564 813.562C818.237 816.111 830.982 823.333 835.655 825.882C874.315 847.974 912.126 871.34 949.511 895.98C986.897 920.621 1024.71 944.411 1056.15 977.124C1081.64 1003.46 1066.34 1020.46 1038.3 1032.78C998.368 1050.62 954.61 1062.94 922.322 1092.25C910.851 1102.88 901.505 1115.2 895.982 1129.22C893.858 1133.89 893.858 1136.01 891.734 1141.54C889.609 1144.93 884.087 1149.61 880.263 1150.88ZM880.263 1129.22C877.714 1127.52 873.041 1129.22 871.766 1131.34C870.917 1133.04 871.766 1131.34 872.191 1130.91C873.466 1127.52 875.165 1123.69 876.864 1120.29C907.453 1061.24 977.551 1046.37 1033.63 1023.01C1055.3 1013.24 1071.44 1004.74 1048.92 982.222C1017.91 950.784 979.675 927.843 942.714 904.477C904.904 881.536 866.243 859.869 827.159 839.052L812.714 831.405C779.577 813.562 742.191 805.915 705.23 799.967C672.943 795.719 604.969 788.072 581.178 811.013C581.178 811.013 581.603 810.163 581.603 808.889C581.603 807.614 581.178 807.189 581.178 806.764C581.178 806.764 582.453 808.039 584.152 808.889C595.198 814.836 607.943 818.235 620.688 822.059C663.596 834.804 707.355 847.974 747.289 869.64C768.106 881.111 788.498 894.281 805.492 911.699C822.061 937.189 837.779 963.954 849.25 992.418C864.544 1034.9 875.59 1079.08 887.485 1122.42L889.185 1129.64L890.034 1133.46L890.459 1135.16V1135.59C889.61 1131.76 884.087 1128.37 880.263 1129.22Z" fill="black"/>
<path d="M473.271 1126.67C473.271 1126.67 443.532 1095.23 407.846 1073.14C328.826 1024.28 212.846 1001.76 211.571 963.953C210.722 921.469 351.767 832.678 445.231 802.515C585.852 763.43 604.12 809.737 605.82 829.28C606.669 838.626 453.303 887.907 454.153 897.678V898.103C454.153 898.103 434.61 904.476 448.63 1001.76C452.029 1025.98 466.898 1067.61 473.271 1126.67Z" fill="white"/>
<path d="M477.944 1136.44C474.121 1138.14 467.748 1136.86 464.774 1133.46L464.349 1132.61L463.075 1131.34C461.8 1129.64 457.127 1124.97 455.428 1123.69C445.232 1113.5 434.186 1103.3 423.14 1094.38C392.552 1069.74 356.441 1053.59 320.755 1037.45C293.14 1025.55 264.676 1014.93 238.336 1000.06C197.127 977.123 199.251 954.182 230.264 921.894C273.598 879.411 325.428 846.698 379.807 819.933C400.199 810.162 421.441 801.241 443.107 794.443C490.264 781.698 600.722 757.058 612.617 826.731C612.617 828.005 613.042 828.855 612.617 830.554C612.192 832.254 611.343 833.103 610.918 833.953C605.82 839.051 599.023 841.6 593.075 844.149C565.46 855.62 536.996 864.966 508.532 874.737C491.114 881.11 472.846 886.208 456.702 895.13C455.853 895.979 454.578 896.829 455.003 898.103C447.356 904.476 447.781 915.947 446.506 924.868C445.657 953.332 450.33 983.071 456.702 1010.69C464.349 1038.3 473.696 1067.19 479.219 1095.65C480.918 1104.57 483.467 1112.65 483.042 1121.57C482.192 1127.09 480.068 1132.61 477.944 1136.44ZM468.598 1116.89C466.474 1115.19 462.65 1115.62 460.951 1117.32C458.826 1102.02 456.277 1086.73 452.879 1071.44C446.931 1043.4 437.585 1014.08 435.036 984.77L433.761 969.901C432.487 948.234 429.088 908.299 445.232 891.731C446.506 890.881 446.506 890.032 450.755 888.332L443.107 898.528C442.683 896.404 444.807 891.306 445.657 890.456C448.206 887.058 450.33 886.208 453.304 884.084C469.023 875.162 486.016 869.215 502.585 862.417C521.277 855.195 567.585 837.352 585.428 829.705C589.251 828.005 594.349 825.881 597.323 823.757C596.474 825.031 596.049 825.031 595.199 828.005C594.774 828.855 595.199 832.679 594.774 830.554C588.826 791.469 527.65 798.267 497.911 802.515C439.709 811.862 385.755 834.803 333.924 862.842C299.938 881.96 265.526 902.352 237.487 929.966C228.14 939.737 217.519 950.783 216.67 963.953C218.794 983.071 253.63 995.816 269.774 1003.89C306.31 1019.61 344.121 1032.78 380.232 1049.77C412.519 1064.64 442.683 1085.03 469.447 1108.4C472.421 1110.95 477.519 1115.62 480.068 1118.17C479.643 1117.32 476.67 1115.62 474.121 1115.19C472.421 1115.62 470.297 1116.04 468.598 1116.89Z" fill="black"/>
<path d="M777.448 1043.4C768.526 1087.16 710.748 1113.5 613.461 1073.99C512.35 1033.2 468.592 935.915 457.546 907.026C517.448 794.869 475.814 717.124 475.814 717.124C613.886 705.229 734.539 866.667 734.539 866.667L753.232 946.536C754.932 953.333 758.33 959.281 763.428 963.529C772.35 979.248 782.971 1015.36 777.448 1043.4Z" fill="white"/>
<path d="M455.423 908.301C463.495 895.98 468.593 881.536 471.992 867.516C478.364 838.203 480.489 808.464 480.913 778.725V767.68C479.639 756.634 475.815 745.163 471.567 734.967C466.044 721.373 486.011 712.876 492.384 726.471C493.234 728.17 493.234 731.144 493.234 732.843C494.508 790.621 497.057 864.967 460.521 912.974C457.972 915.523 452.874 911.699 455.423 908.301Z" fill="black"/>
<path d="M739.212 865.817C745.585 869.641 747.709 874.739 748.559 879.837C751.108 890.033 750.258 901.079 752.807 911.7C754.931 921.896 761.304 931.667 763.003 942.288C765.128 953.334 771.5 976.7 774.049 988.17C774.899 990.719 773.199 993.693 770.226 994.118C768.526 994.543 767.252 994.118 765.977 993.268C760.454 988.595 757.905 983.922 754.507 977.974C748.984 967.778 745.16 958.432 741.762 946.961C738.788 936.765 740.062 925.719 737.513 915.098C735.389 904.902 729.441 895.131 727.317 884.51C726.043 879.412 725.618 873.889 729.441 867.517C731.99 864.968 736.239 864.118 739.212 865.817Z" fill="black"/>
<path d="M769.802 977.974C688.658 973.725 622.384 948.235 557.809 833.104C612.188 881.111 676.338 899.379 743.887 907.876L752.809 946.961C754.508 953.758 764.704 973.725 769.802 977.974Z" fill="black"/>
<path d="M766.405 962.255C780.85 989.444 789.347 1023.43 780.425 1053.59C773.628 1074.84 754.085 1090.56 732.843 1096.5C683.562 1109.67 626.634 1088.86 582.876 1065.49C528.922 1035.33 488.987 984.771 463.497 929.542C461.798 925.294 467.745 921.895 470.294 926.144C479.216 943.987 489.412 961.405 500.882 977.124C512.353 993.268 525.523 1008.14 540.392 1021.31C583.726 1060.39 642.353 1084.61 700.981 1084.61C761.307 1082.91 784.249 1051.05 770.229 992.418C768.105 983.072 764.706 973.301 760.033 965.229C757.484 961.83 763.856 958.006 766.405 962.255Z" fill="black"/>
<path d="M930.816 452.026C938.463 487.712 912.973 525.948 912.973 621.111C912.973 718.399 895.129 824.183 821.633 897.68C758.332 960.98 685.685 958.431 600.293 891.732C588.397 882.386 546.763 850.948 536.142 840.327C523.822 828.007 517.025 819.085 511.077 809.739C505.979 801.242 507.254 751.961 500.031 740.49C481.339 709.477 477.515 743.039 453.299 715.85C419.737 679.314 379.378 605.817 399.345 475.817C431.633 265.098 598.593 240.458 722.221 263.824C846.698 287.614 910.424 358.137 930.816 452.026Z" fill="white"/>
<path d="M474.541 753.66C464.77 737.516 452.449 723.072 440.979 708.202C429.508 692.484 420.162 675.915 412.515 658.072C369.181 553.137 375.554 415.915 452.449 327.549C505.129 267.222 588.397 247.255 664.868 251.503C741.338 256.176 820.783 275.719 877.286 330.948C909.998 362.81 930.815 405.294 940.162 449.477C943.136 463.497 941.011 478.791 937.613 491.961C927.842 528.921 918.495 564.183 917.645 602.418C918.07 659.346 916.371 717.549 899.802 772.353C887.907 808.889 873.887 845.425 851.796 877.287C828.855 909.575 794.443 935.49 754.933 943.137C675.489 959.281 601.142 909.15 548.462 854.771C546.338 852.222 549.312 849.248 551.861 850.948C582.024 873.889 613.038 895.131 646.6 909.575C743.462 954.183 823.757 912.974 866.24 819.51C901.926 751.536 912.123 678.039 909.149 601.993C909.149 582.876 909.998 563.758 912.547 544.64C915.096 517.026 924.443 489.412 924.018 462.222C916.796 418.039 896.404 375.555 865.815 342.843C793.168 265.948 653.822 243.431 556.109 278.268C440.979 319.052 409.966 435.033 403.593 545.915C399.345 612.189 418.887 677.189 469.018 722.647L488.985 743.464C495.783 752.81 481.338 763.856 474.541 753.66Z" fill="black"/>
<path d="M524.672 618.562C524.672 618.562 511.502 554.837 449.476 562.484C395.946 569.281 377.254 697.582 498.757 733.268" fill="white"/>
<path d="M493.234 677.614C483.463 672.092 476.666 662.745 476.241 651.275C476.666 642.778 477.94 633.007 475.816 624.51C474.541 616.438 466.045 614.314 459.672 614.739C452.875 616.013 448.626 624.51 447.352 631.307C447.352 631.732 446.927 633.007 446.927 633.431C446.502 635.556 443.103 635.556 442.254 633.431C436.731 616.863 449.051 598.595 466.894 600.719C491.96 602.418 495.358 628.758 490.685 648.726C488.136 657.222 491.535 664.869 496.208 672.092L497.058 673.366C499.182 675.915 495.783 679.314 493.234 677.614Z" fill="black"/>
<path d="M833.103 573.529C839.476 603.693 851.371 631.732 866.241 658.072C879.411 690.359 845.424 720.947 815.26 719.673C811.862 719.673 811.437 715 814.411 714.15C833.528 708.202 850.947 695.457 853.92 675.915C855.195 669.967 853.496 664.869 850.522 659.771C836.502 633.431 828.005 603.268 830.13 573.529C830.13 571.405 833.103 571.405 833.103 573.529Z" fill="black"/>
<path d="M522.549 618.987C512.777 593.921 491.536 570.13 463.072 570.555C460.523 570.13 456.274 570.98 453.725 570.98C446.503 571.405 440.555 573.954 435.032 579.052C407.843 606.241 412.516 654.248 434.608 684.411C442.255 695.032 452.026 704.379 463.072 712.026C474.117 719.673 486.438 725.621 499.608 730.719C502.581 731.568 501.307 736.241 498.333 735.817C469.869 729.869 442.679 715.849 423.987 692.483C395.098 657.647 389.15 599.444 423.562 565.457C431.209 558.66 441.83 553.562 452.451 553.562C455.849 553.562 460.947 552.712 464.346 553.562C482.189 554.411 499.183 563.333 510.228 577.353C520 589.248 525.523 603.692 527.222 618.137C527.222 620.686 523.398 621.536 522.549 618.987Z" fill="black"/>
<path d="M804.639 760.033C797.417 765.131 786.796 760.882 779.149 764.281C773.626 765.98 764.705 773.628 751.959 772.778C741.763 771.928 736.665 766.83 728.169 763.007C719.247 760.033 709.901 754.51 703.953 747.288C702.678 746.013 702.678 744.314 703.953 743.039C705.652 741.34 707.352 742.614 709.051 743.464C712.875 745.588 715.848 747.288 718.822 748.137C721.796 748.987 724.77 748.137 729.443 748.137C734.116 747.713 740.914 749.837 745.162 753.235C748.136 755.36 751.535 756.634 754.084 757.059C760.881 758.333 769.378 752.811 776.6 751.961C781.698 751.111 787.221 751.536 791.469 752.811C795.718 754.085 798.692 754.935 802.09 754.085C805.914 753.235 808.038 758.333 804.639 760.033Z" fill="black"/>
<path d="M737.09 528.497C746.436 529.771 753.658 520 750.26 510.654C748.56 505.556 745.586 500.883 740.913 497.909C726.469 488.987 672.514 488.137 644.05 508.53C618.56 527.222 694.606 522.549 737.09 528.497Z" fill="black"/>
<path d="M854.769 533.17C847.122 533.17 842.449 523.399 846.273 515.327C848.397 511.079 851.371 507.255 855.619 505.131C868.789 498.758 904.05 502.582 919.769 524.249C933.789 543.366 890.031 532.745 854.769 533.17Z" fill="black"/>
<path d="M723.072 584.575C708.203 597.745 685.261 597.745 667.418 590.948C664.444 589.673 647.451 582.026 650.85 577.778C651.274 577.353 652.124 576.928 652.549 576.928C664.444 577.353 675.49 578.628 686.961 579.477C698.431 580.327 708.627 579.902 720.523 579.477C723.497 579.477 725.196 582.876 723.072 584.575Z" fill="black"/>
<path d="M890.88 591.798C877.285 607.517 849.671 605.392 836.926 590.098C835.651 588.824 836.926 586.275 838.625 586.7C843.298 587.124 847.547 587.974 851.795 588.399C864.54 590.523 875.161 590.098 888.756 589.673C890.88 588.824 891.73 590.948 890.88 591.798Z" fill="black"/>
<path d="M729.021 232.811C538.695 214.543 475.394 278.268 450.329 300.785C415.067 331.798 361.538 454.575 363.662 524.673C366.211 622.386 444.381 725.621 447.78 730.719C465.198 756.634 483.041 772.353 487.714 777.876C485.165 768.53 480.917 734.968 484.74 729.02C378.531 688.236 397.649 569.706 449.479 562.909C503.858 556.111 520.851 604.543 523.825 616.438C523.825 616.438 523.825 617.713 524.25 619.837C524.675 619.837 525.1 620.262 525.525 620.262C544.217 626.634 561.636 607.941 555.263 589.673C545.492 562.909 534.446 531.896 532.747 511.928C530.198 454.151 553.564 388.301 725.623 397.647C747.714 398.922 766.832 402.321 785.525 406.144C794.871 408.693 819.936 418.464 811.44 442.68C803.368 466.046 786.799 446.928 782.126 449.053C779.577 450.327 795.721 471.994 819.512 467.745C839.054 464.347 854.773 444.379 847.976 418.039C854.773 418.889 861.995 419.739 869.217 420.588C915.1 423.987 956.309 388.301 955.034 342.419C953.76 295.687 910.002 250.229 729.021 232.811Z" fill="black"/>
<path d="M488.99 779.575C488.99 779.15 488.566 778.725 487.716 777.451C488.566 780 488.99 780.849 488.99 779.575Z" fill="black"/>
</g>
<defs>
<clipPath id="clip0_409_3759">
<rect width="1300" height="1300" fill="white"/>
</clipPath>
</defs>
</svg>
