<svg width="1300" height="1300" viewBox="0 0 1300 1300" fill="none" xmlns="http://www.w3.org/2000/svg">
<g clip-path="url(#clip0_409_3719)">
<path d="M1003.04 1182.75C1000.07 1184.87 996.668 1186.99 993.694 1189.12C990.295 1191.24 987.321 1193.37 983.923 1195.07C980.949 1196.76 978.4 1198.46 975.426 1200.16C975.001 1200.59 974.576 1200.59 974.151 1201.01C964.38 1206.96 954.184 1212.48 943.988 1217.58C941.014 1219.28 937.615 1220.98 934.641 1222.26C934.641 1222.26 934.217 1222.68 933.792 1222.68C930.393 1224.38 926.994 1226.08 923.596 1227.78C916.798 1231.18 909.576 1234.15 902.779 1237.12C899.38 1238.82 895.556 1240.1 892.158 1241.37C888.759 1242.65 884.936 1244.35 881.537 1245.62C878.138 1246.9 874.315 1248.59 870.916 1249.87C870.916 1249.87 870.916 1249.87 870.491 1249.87C867.092 1251.14 863.269 1252.42 859.87 1253.69C852.223 1256.24 844.151 1258.79 836.504 1261.34C833.955 1262.19 830.981 1263.04 828.432 1263.89C820.36 1266.44 812.289 1268.56 804.217 1270.26C801.243 1271.11 798.269 1271.54 794.87 1272.39C787.223 1274.09 779.151 1275.78 771.504 1277.48C769.805 1277.91 768.53 1277.91 766.831 1278.33C764.282 1278.76 761.308 1279.18 758.759 1279.61C754.936 1280.03 751.537 1280.88 747.713 1281.31C746.014 1281.73 744.315 1281.73 742.615 1282.16C740.491 1282.58 737.942 1283.01 735.393 1283.01C728.596 1283.86 721.373 1284.71 714.576 1285.56C712.452 1285.98 709.903 1285.98 707.779 1286.41H707.354C704.38 1286.83 701.406 1286.83 698.432 1287.25C695.458 1287.68 692.485 1287.68 689.511 1287.68C687.811 1287.68 685.687 1288.1 683.988 1288.1C680.589 1288.1 677.615 1288.53 674.642 1288.53C670.393 1288.53 666.57 1288.95 662.321 1288.95C658.073 1288.95 654.249 1288.95 650.001 1288.95C647.027 1288.95 644.053 1288.95 641.079 1288.95C461.798 1286.41 300.785 1210.36 185.655 1089.71C185.655 1089.71 185.655 1089.28 185.23 1089.28C172.485 1077.81 183.53 1016.63 234.936 977.974C299.511 929.118 454.151 898.53 454.151 898.53C454.151 898.53 514.053 888.758 736.243 935.066C866.243 962.255 965.23 1001.76 1020.46 1108.82C1031.93 1130.92 1043.4 1164.9 1003.04 1182.75Z" fill="white"/>
<path d="M737.517 930.392C819.086 946.961 906.177 964.804 973.301 1018.76C995.818 1037.03 1010.69 1063.79 1023.01 1089.71C1028.96 1102.45 1034.9 1115.62 1039.58 1129.64C1042.12 1138.99 1045.95 1149.61 1043.82 1160.65C1043.4 1163.63 1040.85 1167.45 1038.73 1169.58C1028.96 1179.35 1018.33 1185.29 1007.71 1192.94C945.262 1236.27 873.465 1266.86 799.118 1283.01C633.432 1319.12 454.151 1291.08 308.432 1203.99C260.001 1174.67 215.393 1138.99 177.158 1096.93C172.909 1091.83 172.909 1083.33 172.909 1077.81C173.334 1065.07 176.733 1052.75 180.981 1041.27C191.177 1014.93 204.347 988.595 226.863 970.327C243.007 959.281 260.426 949.935 278.269 942.288C334.347 918.497 393.399 901.928 454.151 895.131C459.249 894.706 460.099 901.928 455.001 902.778C396.798 914.673 339.02 932.516 285.066 956.732C265.524 966.503 244.707 975 228.988 990.294C214.118 1006.44 203.497 1026.41 195.001 1046.8C189.478 1059.12 185.654 1078.66 187.354 1088.43C214.118 1120.29 245.556 1148.33 279.543 1172.55C465.622 1302.55 748.138 1311.05 946.112 1202.71C963.955 1192.94 981.373 1181.9 997.942 1170.42C1006.01 1164.9 1014.51 1160.23 1020.88 1153.86C1021.31 1153.43 1020.88 1153.86 1020.88 1154.28C1020.88 1154.71 1020.46 1155.13 1020.46 1155.13C1020.88 1150.03 1019.18 1143.24 1017.06 1136.44C1009.41 1111.8 997.092 1085.88 983.922 1063.37C963.105 1029.8 927.844 1008.56 892.158 991.569C867.517 980.098 841.602 971.177 815.262 962.68C788.922 954.183 762.158 946.961 735.393 940.588C728.596 938.889 730.72 929.118 737.517 930.392Z" fill="black"/>
<path d="M1144.08 1446.15H69.6709C69.6709 1446.15 119.802 1283.86 157.612 1133.89C172.481 1075.26 200.096 995.393 234.083 972.027C280.815 939.74 358.135 921.472 392.971 909.152C417.187 900.655 435.88 897.681 453.298 893.008C453.298 895.132 453.723 896.831 453.723 898.956C453.723 898.956 492.383 985.622 611.762 1033.63C709.05 1073.14 743.037 1057.42 751.958 1013.66C757.481 985.622 771.501 979.25 762.579 964.38C757.481 960.132 754.083 953.759 752.383 947.387L748.985 933.367C757.056 931.668 764.703 929.544 772.351 926.995C774.9 926.145 777.024 925.295 779.573 924.446C826.73 951.21 891.73 959.707 970.324 1017.48C984.344 1027.68 1025.13 1071.86 1042.12 1179.35C1065.91 1320.82 1144.08 1446.15 1144.08 1446.15Z" fill="black"/>
<path d="M1151.73 1450.39C832.679 1451.67 384.052 1455.92 69.6725 1455.07C64.5745 1455.07 60.751 1451.24 60.751 1446.14C73.0712 1393.46 93.0386 1317.42 106.633 1264.31C117.254 1221.41 130.424 1173.4 141.045 1130.07C156.339 1073.56 175.457 1000.07 223.463 962.68C239.182 952.484 256.601 945.262 273.169 938.889C309.705 925.294 347.091 915.098 384.476 903.628C405.718 895.556 429.509 890.458 451.601 884.085C456.274 882.811 460.947 885.36 462.221 889.608C462.646 890.882 462.646 896.405 463.071 897.68L454.15 889.608C457.548 889.608 460.947 891.732 462.221 894.706C465.62 901.928 470.293 909.575 474.967 916.373C519.999 981.373 592.646 1023.01 668.267 1042.55C689.934 1047.22 718.823 1052.75 734.542 1033.63C744.738 1020.46 744.313 1000.07 752.385 985.621C755.359 978.824 758.757 974.575 755.359 968.628L757.058 970.752C751.535 965.654 747.287 959.281 745.163 952.484C743.463 946.111 742.189 940.588 740.914 935.065C739.64 930.392 743.038 925.294 747.712 924.445C757.483 922.32 767.679 919.347 777.025 915.948C779.574 915.098 782.123 915.523 784.248 916.373C796.568 921.895 809.313 926.569 822.483 931.242C863.692 944.412 904.901 958.431 942.712 980.098C955.457 987.32 967.777 995.392 979.672 1003.89C993.692 1014.51 1002.61 1026.41 1011.54 1040.42C1043.82 1090.98 1054.02 1149.18 1064.64 1206.96C1080.78 1281.73 1108.82 1353.95 1141.96 1422.78L1146.63 1432.12L1148.76 1436.8L1150.03 1438.92L1150.46 1440.2L1150.88 1440.62C1150.88 1440.2 1151.31 1441.05 1151.73 1442.32C1153.43 1445.29 1153.01 1448.69 1151.73 1450.39ZM1136.44 1441.9C1135.16 1443.59 1134.74 1446.57 1135.59 1448.69C1136.01 1449.97 1136.44 1450.82 1136.44 1450.39L1136.01 1449.97L1135.16 1448.69L1133.89 1446.57C1105.85 1398.56 1082.48 1348.01 1064.21 1295.75C1052.32 1261.76 1042.55 1227.35 1036.18 1191.67C1028.53 1144.51 1016.63 1095.23 991.143 1054.44C984.346 1043.82 975.849 1032.35 965.653 1024.71C954.182 1016.63 942.712 1008.56 930.816 1001.76C907.025 987.32 881.535 975.85 855.62 965.654C829.705 955.033 802.091 946.961 776.176 932.092L783.398 932.516C773.202 936.34 762.581 939.314 751.535 941.438L758.333 930.817C760.882 940.164 761.306 951.209 768.953 957.582C773.627 962.68 775.751 971.601 774.476 978.824C773.202 985.196 770.653 989.445 768.953 993.268C765.13 1001.34 762.581 1008.14 760.882 1017.06C746.012 1090.98 660.62 1062.52 612.189 1043.4C544.215 1016.21 480.914 968.628 446.503 902.778L454.574 907.876C449.901 907.876 446.078 904.477 445.653 899.804L445.228 894.281L456.274 901.928C432.483 906.177 411.241 909.575 389.15 917.647C338.594 933.366 284.64 946.536 240.882 976.699C195.424 1009.84 169.509 1127.52 155.065 1181.9C139.346 1241.8 122.777 1301.27 105.359 1360.33C96.4372 1390.07 87.5157 1419.38 78.1693 1449.12L69.6725 1437.65C378.104 1437.22 823.757 1439.35 1136.44 1441.9Z" fill="black"/>
<path d="M713.299 1065.49C713.724 1065.92 713.724 1065.92 714.149 1066.34C714.149 1065.92 714.149 1065.49 714.149 1065.49C714.149 1065.49 713.724 1065.49 713.299 1065.49Z" fill="white"/>
<path d="M814.838 907.877C814.838 907.877 814.837 867.093 779.151 856.472C713.302 836.505 588.824 827.583 505.556 827.583C505.556 827.583 470.295 830.132 457.55 836.505C445.23 842.452 430.36 846.276 426.962 873.89C425.262 887.485 425.262 909.152 425.687 928.269C426.112 953.759 436.308 978.4 454.151 996.668C482.615 1025.98 541.668 1064.22 609.217 1075.69C771.929 1102.88 816.112 1031.93 814.838 994.119C813.138 950.361 814.838 907.877 814.838 907.877Z" fill="black"/>
<path d="M805.916 907.452C805.066 889.184 795.295 869.642 776.602 864.543C770.655 862.844 764.707 861.145 759.184 859.87C676.341 841.602 590.524 837.354 505.557 836.079C494.511 837.354 473.269 839.053 460.949 844.151C455.851 846.7 449.478 849.249 445.23 852.648C435.459 861.145 435.034 876.014 434.609 889.184C434.184 896.831 434.184 904.478 434.184 912.125C431.635 963.955 454.576 991.57 495.785 1019.18C526.798 1040.43 561.635 1055.72 598.596 1064.22C649.151 1073.99 705.23 1078.66 753.661 1059.12C779.151 1048.92 802.942 1027.26 805.916 999.217C806.341 993.269 805.916 983.073 805.916 977.125C805.066 955.034 805.066 929.968 805.916 907.452ZM823.334 907.877C822.91 930.393 822.91 954.609 823.334 977.125C823.334 984.347 824.184 994.543 823.334 1001.34C819.511 1037.03 791.047 1063.79 760.034 1076.54C711.178 1096.93 656.798 1093.53 605.818 1085.46C594.772 1083.33 581.178 1080.36 570.557 1076.96C524.674 1062.09 481.766 1038.3 447.354 1004.31C422.713 980.099 413.367 946.112 415.491 912.55C416.766 887.91 412.517 858.596 432.91 839.478C439.282 834.38 445.655 831.406 452.452 828.432C469.87 821.635 486.864 820.36 504.707 818.661C562.06 819.086 619.413 822.06 676.766 828.857C710.753 833.106 745.164 837.779 778.302 847.55L780.851 848.4L783.825 849.674C798.694 856.896 805.066 872.615 813.563 885.36C819.086 892.158 822.91 899.38 823.334 907.877Z" fill="black"/>
<path d="M428.66 927.844C438.006 1064.22 648.3 1209.94 773.202 1134.31C805.915 1112.22 814.836 1070.16 813.986 1033.2C813.986 1020.46 812.712 1007.71 811.862 994.544C811.437 991.57 816.535 990.72 816.96 993.694C834.803 1065.07 825.882 1144.09 742.614 1165.33C625.784 1193.79 493.235 1107.98 441.83 1005.16C429.934 981.374 422.287 955.034 421.862 928.694C422.287 924.446 428.235 923.596 428.66 927.844Z" fill="white"/>
<path d="M777.449 1043.4C768.527 1087.16 710.749 1113.5 613.462 1073.99C512.351 1033.2 468.593 935.915 457.547 907.027C517.449 794.87 475.815 717.125 475.815 717.125C613.887 705.229 734.54 866.667 734.54 866.667L753.233 946.536C754.933 953.334 758.331 959.281 763.429 963.53C772.351 979.249 782.972 1015.36 777.449 1043.4Z" fill="white"/>
<path d="M455.424 908.301C463.496 895.981 468.594 881.536 471.993 867.517C478.365 838.203 480.49 808.465 480.914 778.726V767.68C479.64 756.634 475.816 745.164 471.568 734.968C466.045 721.373 486.012 712.876 492.385 726.471C493.235 728.17 493.235 731.144 493.235 732.844C494.509 790.621 497.058 864.968 460.522 912.974C457.973 915.523 452.875 911.7 455.424 908.301Z" fill="black"/>
<path d="M739.213 865.818C745.586 869.641 747.71 874.739 748.56 879.837C751.109 890.033 750.259 901.079 752.808 911.7C754.932 921.896 761.305 931.667 763.004 942.288C765.129 953.334 771.501 976.7 774.05 988.171C774.9 990.72 773.2 993.693 770.227 994.118C768.527 994.543 767.253 994.118 765.978 993.269C760.455 988.595 757.906 983.922 754.508 977.974C748.985 967.778 745.161 958.432 741.763 946.961C738.789 936.765 740.063 925.72 737.514 915.099C735.39 904.903 729.442 895.131 727.318 884.51C726.044 879.412 725.619 873.89 729.442 867.517C731.991 864.968 736.24 864.118 739.213 865.818Z" fill="black"/>
<path d="M769.803 977.974C688.659 973.726 622.385 948.236 557.81 833.105C612.189 881.112 676.339 899.379 743.888 907.876L752.81 946.961C754.509 953.759 764.705 973.726 769.803 977.974Z" fill="black"/>
<path d="M766.406 962.255C780.851 989.445 789.348 1023.43 780.426 1053.6C773.629 1074.84 754.086 1090.56 732.844 1096.5C683.563 1109.67 626.635 1088.86 582.877 1065.49C528.923 1035.33 488.988 984.772 463.498 929.543C461.798 925.295 467.746 921.896 470.295 926.144C479.217 943.987 489.413 961.406 500.883 977.125C512.354 993.268 525.524 1008.14 540.393 1021.31C583.727 1060.39 642.354 1084.61 700.982 1084.61C761.308 1082.91 784.25 1051.05 770.23 992.419C768.106 983.072 764.707 973.301 760.034 965.229C757.485 961.83 763.857 958.007 766.406 962.255Z" fill="black"/>
<path d="M930.817 452.027C938.464 487.713 942.287 516.602 921.47 611.765C901.078 706.504 950.784 726.046 833.104 877.713C785.098 939.739 668.692 922.321 574.379 858.17C542.516 836.504 528.921 780.85 505.13 741.34C486.438 710.327 477.941 742.615 453.3 715.85C419.738 679.314 379.379 605.818 399.346 475.818C431.634 265.099 598.594 240.458 722.222 263.824C846.699 287.615 910.424 358.138 930.817 452.027Z" fill="white"/>
<path d="M474.542 753.66C464.771 737.092 452.025 722.647 440.13 707.353C428.659 691.634 419.313 674.216 411.666 656.373C361.11 532.321 380.653 357.713 504.705 284.641C556.11 254.902 618.137 247.68 675.914 252.353C799.542 261.275 912.973 318.203 939.738 449.053C954.182 506.83 934.64 566.308 923.594 622.811C918.496 650.85 922.744 679.739 922.32 708.628C921.895 737.942 913.823 767.255 902.777 794.445C895.98 813.138 884.084 829.706 871.764 845C851.372 869.641 830.98 894.706 805.065 913.824C799.117 918.072 788.496 920.196 781.274 921.046C761.306 924.02 741.764 924.87 721.797 923.595C643.627 920.196 559.934 882.386 528.496 806.765C527.222 803.791 531.47 801.667 533.169 804.216C573.954 868.791 648.725 900.654 723.071 904.902C746.012 906.177 769.378 905.752 791.895 901.079C802.94 895.556 812.712 885.785 822.058 876.863C844.999 853.922 868.365 829.281 884.934 801.242C904.901 763.432 915.947 722.223 912.548 679.314C911.699 660.196 911.274 640.229 915.097 621.111C918.496 601.994 922.744 583.726 925.293 564.183C927.842 545.491 929.117 526.373 929.117 507.68C926.993 452.876 909.15 396.373 874.313 353.889C797.418 258.301 615.588 233.236 513.202 298.661C448.627 338.595 418.463 413.366 408.692 486.013C393.823 573.105 398.071 658.922 467.32 722.223L487.712 743.464C495.784 752.811 481.339 763.857 474.542 753.66Z" fill="black"/>
<path d="M524.671 618.562C524.671 618.562 511.501 554.837 449.475 562.484C395.945 569.281 377.253 697.582 498.756 733.268" fill="white"/>
<path d="M493.234 677.615C483.463 672.092 476.666 662.746 476.241 651.275C476.666 642.778 477.94 633.007 475.816 624.51C474.541 616.438 466.045 614.314 459.672 614.739C452.875 616.014 448.626 624.51 447.352 631.308C447.352 631.733 446.927 633.007 446.927 633.432C446.502 635.556 443.103 635.556 442.254 633.432C436.731 616.863 449.051 598.595 466.894 600.72C491.96 602.419 495.358 628.759 490.685 648.726C488.136 657.223 491.535 664.87 496.208 672.092L497.058 673.367C499.182 675.916 495.783 679.314 493.234 677.615Z" fill="black"/>
<path d="M833.102 573.53C839.475 603.693 851.37 631.732 866.24 658.072C879.41 690.36 845.423 720.948 815.259 719.673C811.861 719.673 811.436 715 814.41 714.151C833.527 708.203 850.946 695.458 853.919 675.915C855.194 669.968 853.495 664.87 850.521 659.772C836.501 633.432 828.004 603.268 830.129 573.53C830.129 571.405 833.102 571.405 833.102 573.53Z" fill="black"/>
<path d="M522.549 618.988C512.777 593.922 491.536 570.131 463.072 570.556C460.523 570.131 456.274 570.981 453.725 570.981C446.503 571.406 440.555 573.955 435.032 579.053C407.843 606.242 412.516 654.249 434.608 684.412C442.255 695.033 452.026 704.38 463.072 712.027C474.117 719.674 486.438 725.622 499.608 730.72C502.581 731.569 501.307 736.242 498.333 735.818C469.869 729.87 442.679 715.85 423.987 692.484C395.098 657.648 389.15 599.445 423.562 565.458C431.209 558.661 441.83 553.563 452.451 553.563C455.849 553.563 460.947 552.713 464.346 553.563C482.189 554.412 499.183 563.334 510.228 577.354C520 589.249 525.523 603.693 527.222 618.138C527.222 620.687 523.398 621.537 522.549 618.988Z" fill="black"/>
<path d="M791.044 760.457C791.469 767.255 786.371 779.15 777.024 787.647C729.018 758.333 707.351 773.627 707.351 773.627C690.358 747.712 694.181 712.451 735.39 739.215C763.854 757.908 781.697 760.882 791.044 760.457Z" fill="black"/>
<path d="M776.599 788.072C766.403 796.993 751.109 802.516 730.292 794.019C720.521 790.196 712.873 782.549 706.926 774.052C707.351 774.052 728.592 758.758 776.599 788.072Z" fill="white"/>
<path d="M799.116 759.183C799.116 759.183 781.273 768.954 735.39 739.64C680.586 704.379 691.632 778.3 730.292 794.019C770.652 810.588 791.469 774.477 791.044 760.882" stroke="black" stroke-width="3" stroke-miterlimit="10" stroke-linecap="round" stroke-linejoin="round"/>
<path d="M707.354 774.052C707.354 774.052 729.02 758.758 777.027 788.072" stroke="black" stroke-width="3" stroke-miterlimit="10" stroke-linecap="round" stroke-linejoin="round"/>
<path d="M737.09 528.497C746.436 529.771 753.658 520 750.26 510.654C748.56 505.556 745.586 500.883 740.913 497.909C726.469 488.987 672.514 488.137 644.05 508.53C618.56 527.222 694.606 522.549 737.09 528.497Z" fill="black"/>
<path d="M854.769 533.17C847.122 533.17 842.449 523.399 846.273 515.327C848.397 511.079 851.371 507.255 855.619 505.131C868.789 498.758 904.05 502.582 919.769 524.249C933.789 543.366 890.031 532.745 854.769 533.17Z" fill="black"/>
<path d="M721.371 583.301C699.704 573.954 675.064 576.503 652.547 581.601C649.998 582.451 648.299 579.052 650.423 577.353C669.966 561.209 706.926 559.085 722.645 581.177C723.92 582.026 723.07 583.726 721.371 583.301Z" fill="black"/>
<path d="M888.332 592.223C878.136 585 863.266 586.275 851.371 587.549C847.123 587.974 842.874 588.824 838.201 590.098C836.927 590.523 835.652 588.399 836.502 587.549L837.351 586.7C847.972 575.654 864.541 573.105 878.985 578.628C884.083 580.752 889.181 583.726 891.73 589.674C893.005 591.798 890.031 593.922 888.332 592.223Z" fill="black"/>
<path d="M964.817 522.973C983.934 457.548 950.797 412.091 927.006 389.999C915.961 360.261 897.268 330.947 867.529 308.431C861.581 303.757 855.209 299.509 847.987 295.685C842.039 292.287 835.666 289.313 829.294 286.339C773.215 262.123 683.575 233.659 594.784 248.953C560.797 254.476 526.81 266.797 494.948 287.614C494.523 287.614 494.523 288.038 494.523 288.038C491.974 289.738 489.425 291.437 487.3 293.136C481.353 285.914 474.555 279.542 466.908 273.594C413.804 233.659 356.026 240.457 316.091 293.986C276.157 347.091 269.359 426.535 322.464 466.47C339.032 478.79 357.725 486.437 376.843 489.411C376.418 491.535 376.418 494.084 375.993 496.208C352.627 705.653 512.791 799.967 500.47 734.117C497.072 732.842 495.372 731.568 495.372 730.718C377.693 693.333 396.385 567.581 449.49 560.784C468.608 558.234 482.627 562.908 493.673 569.705C497.921 573.953 501.745 577.777 505.568 581.601C515.764 594.346 524.686 610.489 524.686 616.862C525.111 611.764 525.536 605.816 526.81 599.868C578.215 638.104 624.523 624.509 708.64 490.261C764.294 401.47 797.431 384.051 815.699 386.601C822.921 389.15 829.719 394.672 836.091 404.019C837.791 406.568 839.49 409.117 840.764 411.666C878.15 410.816 895.568 432.483 904.49 454.999C904.49 454.999 904.49 454.999 904.49 455.424C911.712 474.542 912.562 494.084 913.412 499.182C913.412 500.032 913.411 500.457 913.836 500.457C912.987 517.45 910.862 546.339 910.438 583.725C910.438 600.718 912.137 634.705 910.862 654.248C910.438 660.195 910.013 666.143 909.588 671.666C909.163 674.64 909.163 677.614 908.738 680.163C908.313 682.712 908.314 685.685 907.889 688.659C907.464 692.058 907.039 695.032 907.039 698.431C915.536 708.627 927.856 710.326 938.052 717.123C940.601 688.235 932.954 664.019 929.98 631.306C932.529 642.352 935.928 652.973 941.026 664.019C958.019 700.555 948.673 727.319 948.673 727.319L976.712 729.019C979.686 720.947 982.235 706.078 973.313 686.535C959.719 656.372 958.869 642.352 958.869 642.352C958.869 642.352 966.091 666.993 979.686 683.561C990.307 697.156 994.555 715.424 990.307 729.868L1000.5 730.718C1031.09 684.836 936.353 619.411 964.817 522.973ZM618.15 559.934C585.863 583.3 558.673 578.627 542.104 571.404C542.529 571.404 542.954 570.98 542.954 570.98C553.15 570.13 563.346 568.006 573.117 564.182C619.849 547.614 663.183 504.705 701.418 465.195C669.13 505.13 638.117 545.489 618.15 559.934Z" fill="black"/>
</g>
<defs>
<clipPath id="clip0_409_3719">
<rect width="1300" height="1300" fill="white"/>
</clipPath>
</defs>
</svg>
