<svg width="1300" height="1300" viewBox="0 0 1300 1300" fill="none" xmlns="http://www.w3.org/2000/svg">
<g clip-path="url(#clip0_409_3749)">
<path d="M1003.04 1182.75C1000.07 1184.87 996.668 1186.99 993.694 1189.12C990.295 1191.24 987.321 1193.37 983.923 1195.07C980.949 1196.76 978.4 1198.46 975.426 1200.16C975.001 1200.59 974.576 1200.59 974.151 1201.01C964.38 1206.96 954.184 1212.48 943.988 1217.58C941.014 1219.28 937.615 1220.98 934.641 1222.26C934.641 1222.26 934.217 1222.68 933.792 1222.68C930.393 1224.38 926.994 1226.08 923.596 1227.78C916.798 1231.18 909.576 1234.15 902.779 1237.12C899.38 1238.82 895.556 1240.1 892.158 1241.37C888.759 1242.65 884.936 1244.35 881.537 1245.62C878.138 1246.9 874.315 1248.59 870.916 1249.87C870.916 1249.87 870.916 1249.87 870.491 1249.87C867.092 1251.14 863.269 1252.42 859.87 1253.69C852.223 1256.24 844.151 1258.79 836.504 1261.34C833.955 1262.19 830.981 1263.04 828.432 1263.89C820.36 1266.44 812.289 1268.56 804.217 1270.26C801.243 1271.11 798.269 1271.54 794.87 1272.39C787.223 1274.09 779.151 1275.78 771.504 1277.48C769.805 1277.91 768.53 1277.91 766.831 1278.33C764.282 1278.76 761.308 1279.18 758.759 1279.61C754.936 1280.03 751.537 1280.88 747.713 1281.31C746.014 1281.73 744.315 1281.73 742.615 1282.16C740.491 1282.58 737.942 1283.01 735.393 1283.01C728.596 1283.86 721.373 1284.71 714.576 1285.56C712.452 1285.98 709.903 1285.98 707.779 1286.41H707.354C704.38 1286.83 701.406 1286.83 698.432 1287.25C695.458 1287.68 692.485 1287.68 689.511 1287.68C687.811 1287.68 685.687 1288.1 683.988 1288.1C680.589 1288.1 677.615 1288.53 674.642 1288.53C670.393 1288.53 666.57 1288.95 662.321 1288.95C658.073 1288.95 654.249 1288.95 650.001 1288.95C647.027 1288.95 644.053 1288.95 641.079 1288.95C461.798 1286.41 300.785 1210.36 185.655 1089.71C185.655 1089.71 185.655 1089.28 185.23 1089.28C172.485 1077.81 183.53 1016.63 234.936 977.974C299.511 929.118 454.151 898.53 454.151 898.53C454.151 898.53 514.053 888.758 736.243 935.066C866.243 962.255 965.23 1001.76 1020.46 1108.82C1031.93 1130.92 1043.4 1164.9 1003.04 1182.75Z" fill="white"/>
<path d="M737.517 930.392C819.086 946.961 906.177 964.804 973.301 1018.76C995.818 1037.03 1010.69 1063.79 1023.01 1089.71C1028.96 1102.45 1034.9 1115.62 1039.58 1129.64C1042.12 1138.99 1045.95 1149.61 1043.82 1160.65C1043.4 1163.63 1040.85 1167.45 1038.73 1169.58C1028.96 1179.35 1018.33 1185.29 1007.71 1192.94C945.262 1236.27 873.465 1266.86 799.118 1283.01C633.432 1319.12 454.151 1291.08 308.432 1203.99C260.001 1174.67 215.393 1138.99 177.158 1096.93C172.909 1091.83 172.909 1083.33 172.909 1077.81C173.334 1065.07 176.733 1052.75 180.981 1041.27C191.177 1014.93 204.347 988.595 226.863 970.327C243.007 959.281 260.426 949.935 278.269 942.288C334.347 918.497 393.399 901.928 454.151 895.131C459.249 894.706 460.099 901.928 455.001 902.778C396.798 914.673 339.02 932.516 285.066 956.732C265.524 966.503 244.707 975 228.988 990.294C214.118 1006.44 203.497 1026.41 195.001 1046.8C189.478 1059.12 185.654 1078.66 187.354 1088.43C214.118 1120.29 245.556 1148.33 279.543 1172.55C465.622 1302.55 748.138 1311.05 946.112 1202.71C963.955 1192.94 981.373 1181.9 997.942 1170.42C1006.01 1164.9 1014.51 1160.23 1020.88 1153.86C1021.31 1153.43 1020.88 1153.86 1020.88 1154.28C1020.88 1154.71 1020.46 1155.13 1020.46 1155.13C1020.88 1150.03 1019.18 1143.24 1017.06 1136.44C1009.41 1111.8 997.092 1085.88 983.922 1063.37C963.105 1029.8 927.844 1008.56 892.158 991.569C867.517 980.098 841.602 971.177 815.262 962.68C788.922 954.183 762.158 946.961 735.393 940.588C728.596 938.889 730.72 929.118 737.517 930.392Z" fill="black"/>
<path d="M494.936 938.039C494.936 938.039 486.439 885.359 471.995 888.333C437.583 896.405 326.276 919.771 258.302 956.307C243.433 964.379 232.812 970.752 220.067 982.647C196.701 1004.74 180.557 1062.09 161.015 1131.76C119.381 1280.88 69.6748 1445.72 69.6748 1445.72H1144.09C1144.09 1445.72 1076.96 1365.42 1055.72 1223.53C1035.75 1090.13 996.243 1042.12 989.446 1033.63C970.753 1010.26 884.936 963.104 843.302 945.261C779.577 918.072 715.426 975 697.158 973.725C664.871 972.876 494.936 938.039 494.936 938.039Z" fill="black" stroke="black" stroke-width="5.1257" stroke-miterlimit="10" stroke-linecap="round" stroke-linejoin="round"/>
<path d="M279.969 1446.14L260.852 1288.53" stroke="white" stroke-width="3" stroke-miterlimit="10" stroke-linecap="round" stroke-linejoin="round"/>
<path d="M1022.16 1235C1022.16 1235 1009.41 1266.01 1013.24 1297.03C1017.06 1328.04 1028.11 1373.5 1012.39 1446.15" stroke="white" stroke-width="3" stroke-miterlimit="10" stroke-linecap="round" stroke-linejoin="round"/>
<path d="M445.654 845.425C445.654 845.425 415.066 856.471 409.543 862.418C404.02 868.366 401.471 872.19 401.471 872.19C401.471 872.19 386.177 889.183 377.68 930.392C373.857 947.81 382.778 976.274 375.981 998.791C356.438 1061.24 449.053 1157.25 601.994 1213.76C717.974 1256.67 845.85 1217.58 863.693 1136.86C880.687 1059.12 870.491 1023.86 862.419 998.791C846.275 950.359 841.177 936.765 819.51 918.072C805.915 906.176 796.569 930.817 745.589 944.837C729.87 949.085 710.752 952.484 686.112 953.333C539.543 958.856 536.144 870.065 514.053 846.699C508.955 841.601 480.066 833.105 445.654 845.425Z" fill="white"/>
<path d="M448.203 851.372C437.157 855.621 424.412 859.869 414.641 866.666C412.092 869.215 409.118 873.039 406.569 876.013C398.072 887.059 392.549 901.078 388.301 914.248C383.628 928.268 381.929 941.013 383.628 955.882C384.478 969.052 385.752 983.497 382.778 996.666C377.68 1011.54 378.955 1027.25 384.902 1042.12C418.889 1129.64 581.602 1214.18 672.092 1222.68C738.366 1229.48 830.556 1211.21 855.621 1141.96C868.366 1092.68 873.465 1039.15 854.772 991.144C847.549 970.751 841.602 948.235 828.007 931.666C825.883 929.117 823.334 926.568 820.785 924.019L816.961 920.621C815.687 919.771 814.837 918.921 813.563 918.921C808.04 918.072 801.242 923.595 796.144 926.568C757.909 951.634 710.327 958.006 665.295 956.307C620.262 955.457 571.831 941.862 543.791 904.477C529.772 887.908 523.399 866.666 510.654 850.098L510.229 849.673L509.38 849.248C489.837 841.176 466.896 844.15 448.203 851.372ZM444.804 842.026C466.896 833.954 494.51 829.706 515.752 841.601C521.275 846.699 524.674 854.346 528.072 861.144C534.445 874.738 540.393 887.908 548.889 899.804C573.955 937.614 621.536 949.934 664.87 949.934C694.183 950.359 724.347 947.81 751.961 938.464C765.981 933.791 779.151 927.418 791.471 919.346C799.968 913.823 811.863 905.327 821.21 914.248C831.831 922.745 840.752 933.791 846.7 945.686C856.471 966.503 863.268 987.745 870.491 1009.41C883.236 1054.02 877.288 1100.75 867.092 1144.93C840.752 1222.25 743.465 1242.22 671.242 1234.57C582.876 1225.23 452.451 1155.98 398.072 1085.46C379.804 1061.24 363.236 1030.65 371.308 999.215C375.981 985.621 374.706 971.176 373.432 956.307C371.308 941.438 373.432 925.294 378.53 910.849C382.778 896.405 390 880.261 398.497 869.64C402.746 864.117 407.844 857.745 413.791 854.771C423.563 849.673 433.759 845 444.804 842.026Z" fill="black"/>
<path d="M746.441 950.784C709.905 958.856 672.519 958.856 635.559 955.882C586.278 951.634 536.147 935.49 500.885 899.379C491.964 890.882 483.892 880.686 475.82 872.614C473.271 870.065 473.271 865.817 475.82 863.268C478.369 860.719 483.042 860.719 485.166 863.693C493.238 873.889 500.036 883.235 508.108 892.157C548.892 938.039 613.042 951.209 672.094 949.51C695.885 948.66 720.101 946.536 743.042 938.889C751.539 935.915 755.362 948.66 746.441 950.784Z" fill="black"/>
<path d="M822.488 902.778C861.149 935.066 928.273 1019.61 912.129 1208.66C904.057 1302.12 949.515 1340.78 939.319 1355.65C937.619 1358.2 935.495 1359.48 933.796 1359.9C926.573 1361.6 919.776 1365 916.377 1371.8C915.103 1374.77 912.979 1376.9 910.005 1378.6C907.456 1380.29 904.482 1380.29 901.933 1379.87C893.011 1377.75 883.24 1382.84 877.717 1390.49C875.593 1393.46 873.044 1395.59 869.22 1396.44C866.671 1397.29 864.122 1396.86 862.423 1396.44C855.201 1394.31 847.129 1396.44 840.756 1401.54C839.057 1402.81 837.358 1403.66 835.234 1403.66C831.41 1403.66 828.436 1401.96 825.887 1399.41C819.939 1393.89 811.443 1391.77 802.946 1394.74C802.096 1395.16 801.671 1395.16 800.822 1395.16C794.874 1396.01 790.201 1391.34 786.802 1383.27C783.403 1375.62 775.332 1372.22 766.835 1373.07C765.135 1373.07 763.436 1373.07 761.312 1372.65C744.743 1368.82 723.501 1345.88 723.077 1317.84C722.652 1290.23 729.024 1242.22 739.645 1219.71C772.358 1150.46 784.253 1100.75 785.952 1063.37C789.351 994.968 746.018 933.791 750.266 932.517C793.6 923.595 822.488 902.778 822.488 902.778Z" fill="white"/>
<path d="M822.487 896.406C833.533 902.353 842.454 913.399 850.951 922.746C894.709 975.001 912.977 1043.4 918.075 1110.52C919.774 1136.44 920.199 1162.78 918.075 1188.69L916.801 1208.24C913.827 1239.67 916.801 1271.96 927.421 1301.7C931.67 1313.6 936.768 1325.07 941.866 1337.39C944.84 1344.18 946.964 1354.38 940.591 1360.33C938.467 1363.3 933.794 1364.15 929.97 1365.43C926.147 1366.7 922.748 1368.82 920.624 1372.22C917.225 1379.44 909.578 1385.82 901.082 1384.12C894.709 1382.42 887.912 1385.39 883.238 1390.07C878.565 1396.44 872.193 1401.96 863.696 1400.69C858.173 1399.41 852.65 1398.56 847.127 1401.54C845.003 1402.39 843.304 1404.09 841.604 1405.36C836.506 1408.33 830.134 1407.48 825.461 1404.51C822.062 1402.39 821.212 1400.26 818.238 1398.99C813.99 1396.86 808.467 1396.44 803.794 1398.14C793.173 1401.54 785.526 1392.19 782.127 1383.69C779.153 1377.32 771.082 1376.05 764.709 1376.9C760.036 1376.9 755.363 1375.2 751.114 1373.07C732.846 1362.88 720.951 1343.76 718.402 1322.94C717.127 1302.97 719.676 1283.43 722.65 1263.89C724.774 1251.14 727.748 1237.97 731.997 1225.65C736.67 1213.33 742.618 1202.29 747.716 1189.97C766.833 1143.24 784.676 1092.68 781.278 1041.28C777.879 1006.01 764.709 972.876 748.14 941.863C746.441 938.04 742.193 931.242 748.14 929.118C771.506 923.595 794.023 913.824 813.99 900.229C817.389 898.955 819.513 896.406 822.487 896.406ZM822.062 909.151C822.912 909.151 823.761 909.151 824.611 908.726C825.886 907.876 825.036 908.301 825.036 908.301C813.565 914.674 801.67 920.197 789.35 924.87C777.454 929.118 760.461 934.216 750.689 935.916C751.539 935.491 752.389 934.641 752.389 933.367C753.238 936.765 757.487 944.412 758.761 947.811C805.918 1041.7 798.696 1099.9 758.761 1194.64C754.088 1206.11 747.716 1218.01 743.042 1229.9C734.121 1256.24 730.297 1285.13 729.448 1313.17C728.173 1334.84 741.768 1360.33 763.01 1366.28C763.859 1366.28 764.284 1366.28 765.134 1366.28C771.931 1365.85 778.729 1367.12 784.252 1371.37C787.225 1373.5 789.774 1376.9 791.474 1380.72C793.173 1384.54 795.297 1389.64 799.546 1388.79C808.892 1385.82 819.513 1387.09 827.16 1393.89C830.134 1396.86 832.258 1398.56 836.082 1397.29C841.18 1393.46 847.127 1390.49 853.925 1390.07C859.448 1389.22 864.97 1393.46 870.069 1390.07C872.618 1388.37 873.892 1385.82 876.016 1383.69C882.389 1377.32 891.735 1373.07 901.082 1375.2C907.029 1376.9 910.428 1372.22 912.552 1367.55C916.801 1361.18 924.023 1357.78 931.245 1356.08C937.617 1353.53 934.644 1346.31 932.944 1340.78C928.271 1329.31 922.748 1316.99 918.5 1304.67C914.251 1292.35 910.853 1279.61 909.153 1266.44C904.905 1240.95 907.029 1214.18 908.729 1188.27C910.428 1162.78 910.003 1136.86 908.304 1111.37C902.781 1045.52 883.238 977.125 837.781 927.419C833.957 922.746 828.859 918.497 824.611 914.249C824.186 912.55 823.336 911.275 822.062 909.151Z" fill="black"/>
<path d="M760.882 1175.95C685.686 1178.92 605.816 1166.18 544.64 1120.29C542.091 1118.6 545.065 1114.35 547.614 1116.47C593.071 1148.76 649.15 1161.5 704.379 1164.48C722.647 1165.33 741.764 1165.33 759.607 1163.63C768.529 1162.78 769.803 1175.1 760.882 1175.95Z" fill="black"/>
<path d="M796.997 944.412C816.114 964.379 826.31 992.418 825.036 1020.03C825.036 1021.31 822.912 1021.73 822.487 1020.46C816.539 1001.34 809.742 983.072 800.82 965.654C797.846 959.706 794.873 953.758 792.324 947.811C791.899 944.837 795.297 942.713 796.997 944.412Z" fill="black"/>
<path d="M843.304 1398.99C826.311 1348.86 834.808 1294.05 845.853 1243.5C856.049 1194.22 864.971 1142.81 859.023 1092.68C858.174 1089.28 863.696 1087.58 864.546 1091.4C871.768 1142.81 864.546 1194.64 855.2 1245.2C850.102 1270.26 846.278 1295.33 845.853 1320.39C845.428 1344.61 846.703 1370.1 855.625 1393.04C858.598 1401.54 847.128 1407.06 843.304 1398.99Z" fill="black"/>
<path d="M382.779 949.085C397.648 980.523 415.491 1012.39 440.982 1036.18C443.106 1037.88 440.557 1041.7 438.008 1039.57C409.119 1017.06 388.727 986.045 370.884 954.608C367.485 946.961 379.38 941.013 382.779 949.085Z" fill="black"/>
<path d="M783.825 1045.1C760.459 1107.12 694.185 1103.3 643.205 1079.08C641.505 1078.24 640.656 1076.54 641.505 1074.84C642.355 1073.14 644.054 1072.29 645.754 1073.14C657.649 1077.81 669.969 1082.06 682.29 1084.18C719.25 1092.25 759.185 1080.36 771.505 1041.7C773.629 1033.2 785.95 1037.03 783.825 1045.1Z" fill="black"/>
<path d="M777.448 1043.4C768.526 1087.16 710.748 1113.5 613.461 1073.99C512.35 1033.2 468.592 935.915 457.546 907.026C517.448 794.869 475.814 717.124 475.814 717.124C613.886 705.229 734.539 866.667 734.539 866.667L753.232 946.536C754.932 953.333 758.33 959.281 763.428 963.529C772.35 979.248 782.971 1015.36 777.448 1043.4Z" fill="white"/>
<path d="M455.423 908.301C463.495 895.98 468.593 881.536 471.992 867.516C478.364 838.203 480.489 808.464 480.913 778.725V767.68C479.639 756.634 475.815 745.163 471.567 734.967C466.044 721.373 486.011 712.876 492.384 726.471C493.234 728.17 493.234 731.144 493.234 732.843C494.508 790.621 497.057 864.967 460.521 912.974C457.972 915.523 452.874 911.699 455.423 908.301Z" fill="black"/>
<path d="M739.212 865.817C745.585 869.641 747.709 874.739 748.559 879.837C751.108 890.033 750.258 901.079 752.807 911.7C754.931 921.896 761.304 931.667 763.003 942.288C765.128 953.334 771.5 976.7 774.049 988.17C774.899 990.719 773.199 993.693 770.226 994.118C768.526 994.543 767.252 994.118 765.977 993.268C760.454 988.595 757.905 983.922 754.507 977.974C748.984 967.778 745.16 958.432 741.762 946.961C738.788 936.765 740.062 925.719 737.513 915.098C735.389 904.902 729.441 895.131 727.317 884.51C726.043 879.412 725.618 873.889 729.441 867.517C731.99 864.968 736.239 864.118 739.212 865.817Z" fill="black"/>
<path d="M769.802 977.974C688.658 973.725 622.384 948.235 557.809 833.104C612.188 881.111 676.338 899.379 743.887 907.876L752.809 946.961C754.508 953.758 764.704 973.725 769.802 977.974Z" fill="black"/>
<path d="M766.405 962.255C780.85 989.444 789.347 1023.43 780.425 1053.59C773.628 1074.84 754.085 1090.56 732.843 1096.5C683.562 1109.67 626.634 1088.86 582.876 1065.49C528.922 1035.33 488.987 984.771 463.497 929.542C461.798 925.294 467.745 921.895 470.294 926.144C479.216 943.987 489.412 961.405 500.882 977.124C512.353 993.268 525.523 1008.14 540.392 1021.31C583.726 1060.39 642.353 1084.61 700.981 1084.61C761.307 1082.91 784.249 1051.05 770.229 992.418C768.105 983.072 764.706 973.301 760.033 965.229C757.484 961.83 763.856 958.006 766.405 962.255Z" fill="black"/>
<path d="M930.816 452.026C938.463 487.712 912.973 525.948 912.973 621.111C912.973 718.399 895.129 824.183 821.633 897.68C758.332 960.98 685.685 958.431 600.293 891.732C588.397 882.386 546.763 850.948 536.142 840.327C523.822 828.007 517.025 819.085 511.077 809.739C505.979 801.242 507.254 751.961 500.031 740.49C481.339 709.477 477.515 743.039 453.299 715.85C419.737 679.314 379.378 605.817 399.345 475.817C431.633 265.098 598.593 240.458 722.221 263.824C846.698 287.614 910.424 358.137 930.816 452.026Z" fill="white"/>
<path d="M474.541 753.66C464.77 737.516 452.449 723.072 440.979 708.202C429.508 692.484 420.162 675.915 412.515 658.072C369.181 553.137 375.554 415.915 452.449 327.549C505.129 267.222 588.397 247.255 664.868 251.503C741.338 256.176 820.783 275.719 877.286 330.948C909.998 362.81 930.815 405.294 940.162 449.477C943.136 463.497 941.011 478.791 937.613 491.961C927.842 528.921 918.495 564.183 917.645 602.418C918.07 659.346 916.371 717.549 899.802 772.353C887.907 808.889 873.887 845.425 851.796 877.287C828.855 909.575 794.443 935.49 754.933 943.137C675.489 959.281 601.142 909.15 548.462 854.771C546.338 852.222 549.312 849.248 551.861 850.948C582.024 873.889 613.038 895.131 646.6 909.575C743.462 954.183 823.757 912.974 866.24 819.51C901.926 751.536 912.123 678.039 909.149 601.993C909.149 582.876 909.998 563.758 912.547 544.64C915.096 517.026 924.443 489.412 924.018 462.222C916.796 418.039 896.404 375.555 865.815 342.843C793.168 265.948 653.822 243.431 556.109 278.268C440.979 319.052 409.966 435.033 403.593 545.915C399.345 612.189 418.887 677.189 469.018 722.647L488.985 743.464C495.783 752.81 481.338 763.856 474.541 753.66Z" fill="black"/>
<path d="M524.672 618.562C524.672 618.562 511.502 554.837 449.476 562.484C395.946 569.281 377.254 697.582 498.757 733.268" fill="white"/>
<path d="M493.234 677.614C483.463 672.092 476.666 662.745 476.241 651.275C476.666 642.778 477.94 633.007 475.816 624.51C474.541 616.438 466.045 614.314 459.672 614.739C452.875 616.013 448.626 624.51 447.352 631.307C447.352 631.732 446.927 633.007 446.927 633.431C446.502 635.556 443.103 635.556 442.254 633.431C436.731 616.863 449.051 598.595 466.894 600.719C491.96 602.418 495.358 628.758 490.685 648.726C488.136 657.222 491.535 664.869 496.208 672.092L497.058 673.366C499.182 675.915 495.783 679.314 493.234 677.614Z" fill="black"/>
<path d="M833.103 573.529C839.476 603.693 851.371 631.732 866.241 658.072C879.411 690.359 845.424 720.947 815.26 719.673C811.862 719.673 811.437 715 814.411 714.15C833.528 708.202 850.947 695.457 853.92 675.915C855.195 669.967 853.496 664.869 850.522 659.771C836.502 633.431 828.005 603.268 830.13 573.529C830.13 571.405 833.103 571.405 833.103 573.529Z" fill="black"/>
<path d="M522.549 618.987C512.777 593.921 491.536 570.13 463.072 570.555C460.523 570.13 456.274 570.98 453.725 570.98C446.503 571.405 440.555 573.954 435.032 579.052C407.843 606.241 412.516 654.248 434.608 684.411C442.255 695.032 452.026 704.379 463.072 712.026C474.117 719.673 486.438 725.621 499.608 730.719C502.581 731.568 501.307 736.241 498.333 735.817C469.869 729.869 442.679 715.849 423.987 692.483C395.098 657.647 389.15 599.444 423.562 565.457C431.209 558.66 441.83 553.562 452.451 553.562C455.849 553.562 460.947 552.712 464.346 553.562C482.189 554.411 499.183 563.333 510.228 577.353C520 589.248 525.523 603.692 527.222 618.137C527.222 620.686 523.398 621.536 522.549 618.987Z" fill="black"/>
<path d="M800.818 762.157C773.628 788.072 722.223 767.255 708.628 735.817C706.929 731.993 711.177 728.595 714.576 730.294C721.798 734.118 728.171 737.941 734.968 740.915C754.51 749.837 774.903 757.059 796.569 754.935C800.818 754.085 803.791 759.183 800.818 762.157Z" fill="#040404"/>
<path d="M694.607 586.7C694.607 587.125 694.607 587.549 694.607 587.549L694.182 599.445C693.758 609.641 685.261 617.288 675.065 616.863C664.869 616.438 657.222 607.517 658.071 597.746L658.496 585.85C658.496 583.726 659.346 581.177 660.196 579.478L694.182 581.177C694.182 582.876 694.607 584.576 694.607 586.7Z" fill="black"/>
<path d="M872.187 596.046L871.763 607.092C871.338 616.438 863.266 623.66 853.919 623.236C844.573 622.811 837.351 614.739 837.776 605.392L838.2 594.347C838.2 592.222 838.625 590.098 839.475 588.399L871.338 589.673C871.763 591.798 872.187 593.922 872.187 596.046Z" fill="black"/>
<path d="M737.09 528.497C746.436 529.771 753.658 520 750.26 510.654C748.56 505.556 745.586 500.883 740.913 497.909C726.469 488.987 672.514 488.137 644.05 508.53C618.56 527.222 694.606 522.549 737.09 528.497Z" fill="black"/>
<path d="M854.769 533.17C847.122 533.17 842.449 523.399 846.273 515.327C848.397 511.079 851.371 507.255 855.619 505.131C868.789 498.758 904.05 502.582 919.769 524.249C933.789 543.366 890.031 532.745 854.769 533.17Z" fill="black"/>
<path d="M721.793 586.699L651.695 585.425C643.199 585 643.623 572.255 652.12 572.68L722.218 577.778C728.166 578.203 727.741 586.699 721.793 586.699Z" fill="black"/>
<path d="M890.032 593.921L838.202 594.771C829.706 594.771 829.281 582.451 837.777 582.026C838.202 582.026 838.202 582.026 838.627 582.026L890.457 587.549C894.281 587.974 893.856 593.496 890.032 593.921Z" fill="black"/>
<path d="M930.818 452.025C928.694 442.679 926.145 433.757 923.171 424.836C900.654 406.993 876.863 395.522 840.752 390.424C743.465 377.254 666.569 386.176 584.576 404.019C533.171 415.065 543.792 592.646 523.824 616.012C520.426 604.117 503.857 555.685 449.478 562.483C398.073 568.855 378.53 687.81 484.739 728.594C483.89 751.96 493.236 777.875 487.288 805.065C487.288 805.065 484.314 774.052 450.328 733.267C416.341 692.483 305.883 586.699 351.765 432.058C397.648 277.417 605.393 196.699 798.694 275.293C831.831 288.888 859.02 308.006 880.687 327.973C931.667 374.705 958.007 389.999 950.36 458.398C947.811 481.339 937.615 482.189 930.818 452.025Z" fill="black"/>
<path d="M863.27 378.954C863.27 378.954 737.943 570.98 504.283 511.503C504.283 511.503 458.826 397.222 557.812 353.463C656.799 309.705 839.054 340.718 863.27 378.954Z" fill="black"/>
<path d="M850.102 381.504C850.102 381.504 866.245 426.111 898.108 462.222C918.925 485.588 946.115 505.131 980.102 505.981C980.102 505.981 990.722 390.425 915.102 345.392C839.481 300.36 850.102 381.504 850.102 381.504Z" fill="black"/>
<path d="M539.544 308.006C539.544 308.006 402.747 95.1629 282.518 249.379C162.29 403.594 293.564 806.339 220.492 927.418C220.492 927.418 304.185 866.666 326.277 747.712C326.277 747.712 328.826 796.993 313.956 865.816C313.956 865.816 402.747 763.431 402.747 640.653C402.747 517.875 491.538 339.444 539.544 308.006Z" fill="black"/>
<path d="M937.194 547.614C952.488 612.614 937.194 725.196 937.194 725.196C937.194 725.196 1124.12 428.235 972.88 315.653C845.429 220.49 570.56 317.352 570.56 317.352C570.56 317.352 828.435 255.326 878.991 373.856C924.873 480.915 901.082 390.424 915.527 454.15C916.801 460.522 935.069 538.692 937.194 547.614Z" fill="black"/>
</g>
<defs>
<clipPath id="clip0_409_3749">
<rect width="1300" height="1300" fill="white"/>
</clipPath>
</defs>
</svg>
