<svg width="1300" height="1300" viewBox="0 0 1300 1300" fill="none" xmlns="http://www.w3.org/2000/svg">
<g clip-path="url(#clip0_409_3689)">
<path d="M1003.04 1182.75C1000.07 1184.87 996.667 1186.99 993.693 1189.12C990.295 1191.24 987.321 1193.37 983.922 1195.07C980.948 1196.76 978.399 1198.46 975.425 1200.16C975 1200.59 974.576 1200.59 974.151 1201.01C964.38 1206.96 954.183 1212.48 943.987 1217.58C941.013 1219.28 937.615 1220.98 934.641 1222.26C934.641 1222.26 934.216 1222.68 933.791 1222.68C930.393 1224.38 926.994 1226.08 923.595 1227.78C916.798 1231.18 909.576 1234.15 902.778 1237.12C899.38 1238.82 895.556 1240.1 892.157 1241.37C888.759 1242.65 884.935 1244.35 881.536 1245.62C878.138 1246.9 874.314 1248.59 870.915 1249.87C870.915 1249.87 870.915 1249.87 870.491 1249.87C867.092 1251.14 863.268 1252.42 859.87 1253.69C852.223 1256.24 844.151 1258.79 836.504 1261.34C833.955 1262.19 830.981 1263.04 828.432 1263.89C820.36 1266.44 812.288 1268.56 804.216 1270.26C801.242 1271.11 798.268 1271.54 794.87 1272.39C787.223 1274.09 779.151 1275.78 771.504 1277.48C769.804 1277.91 768.53 1277.91 766.831 1278.33C764.281 1278.76 761.308 1279.18 758.759 1279.61C754.935 1280.03 751.536 1280.88 747.713 1281.31C746.013 1281.73 744.314 1281.73 742.615 1282.16C740.491 1282.58 737.942 1283.01 735.393 1283.01C728.595 1283.86 721.373 1284.71 714.576 1285.56C712.451 1285.98 709.902 1285.98 707.778 1286.41H707.353C704.38 1286.83 701.406 1286.83 698.432 1287.25C695.458 1287.68 692.484 1287.68 689.51 1287.68C687.811 1287.68 685.687 1288.1 683.987 1288.1C680.589 1288.1 677.615 1288.53 674.641 1288.53C670.393 1288.53 666.569 1288.95 662.321 1288.95C658.072 1288.95 654.249 1288.95 650 1288.95C647.027 1288.95 644.053 1288.95 641.079 1288.95C461.798 1286.41 300.785 1210.36 185.654 1089.71C185.654 1089.71 185.654 1089.28 185.229 1089.28C172.484 1077.81 183.53 1016.63 234.935 977.974C299.51 929.118 454.151 898.53 454.151 898.53C454.151 898.53 514.053 888.758 736.242 935.066C866.242 962.255 965.229 1001.76 1020.46 1108.82C1031.93 1130.92 1043.4 1164.9 1003.04 1182.75Z" fill="white"/>
<path d="M737.517 930.392C819.086 946.961 906.177 964.804 973.301 1018.76C995.818 1037.03 1010.69 1063.79 1023.01 1089.71C1028.96 1102.45 1034.9 1115.62 1039.58 1129.64C1042.12 1138.99 1045.95 1149.61 1043.82 1160.65C1043.4 1163.63 1040.85 1167.45 1038.73 1169.58C1028.96 1179.35 1018.33 1185.29 1007.71 1192.94C945.262 1236.27 873.465 1266.86 799.118 1283.01C633.432 1319.12 454.151 1291.08 308.432 1203.99C260.001 1174.67 215.393 1138.99 177.158 1096.93C172.909 1091.83 172.909 1083.33 172.909 1077.81C173.334 1065.07 176.733 1052.75 180.981 1041.27C191.177 1014.93 204.347 988.595 226.863 970.327C243.007 959.281 260.426 949.935 278.269 942.288C334.347 918.497 393.399 901.928 454.151 895.131C459.249 894.706 460.099 901.928 455.001 902.778C396.798 914.673 339.02 932.516 285.066 956.732C265.524 966.503 244.707 975 228.988 990.294C214.118 1006.44 203.497 1026.41 195.001 1046.8C189.478 1059.12 185.654 1078.66 187.354 1088.43C214.118 1120.29 245.556 1148.33 279.543 1172.55C465.622 1302.55 748.138 1311.05 946.112 1202.71C963.955 1192.94 981.373 1181.9 997.942 1170.42C1006.01 1164.9 1014.51 1160.23 1020.88 1153.86C1021.31 1153.43 1020.88 1153.86 1020.88 1154.28C1020.88 1154.71 1020.46 1155.13 1020.46 1155.13C1020.88 1150.03 1019.18 1143.24 1017.06 1136.44C1009.41 1111.8 997.092 1085.88 983.922 1063.37C963.105 1029.8 927.844 1008.56 892.158 991.569C867.517 980.098 841.602 971.177 815.262 962.68C788.922 954.183 762.158 946.961 735.393 940.588C728.596 938.889 730.72 929.118 737.517 930.392Z" fill="black"/>
<path d="M1144.09 1446.14H38.6612C38.6612 1446.14 35.2625 1178.5 130.001 1054.02C199.249 962.68 325.426 938.464 402.746 915.948C422.714 910.425 440.132 904.053 454.576 900.229C459.249 912.974 506.406 1037.88 619.413 1083.76C716.7 1123.27 774.478 1096.93 783.4 1053.17C788.923 1025.13 771.504 979.249 762.583 964.379C757.485 960.131 754.086 953.758 752.387 947.386L748.988 933.366C756.635 931.667 763.857 929.543 771.504 927.419C775.328 928.268 779.151 929.118 782.975 929.968C837.779 943.138 951.635 945.687 1046.8 1025.98C1157.26 1117.75 1144.09 1446.14 1144.09 1446.14Z" fill="black"/>
<path d="M881.538 1033.2C879.414 1003.04 845.427 999.215 845.427 999.215C845.427 999.215 874.741 997.091 876.015 973.3C876.865 959.706 864.12 946.536 843.303 938.464C848.826 935.49 853.074 931.666 850.1 926.143C843.303 913.823 818.238 911.699 812.715 909.575C791.048 901.503 744.316 855.196 597.747 839.477C559.937 835.653 481.342 833.529 450.329 852.647V852.222C446.505 852.222 439.708 857.745 432.061 865.817C423.564 866.241 400.198 868.79 379.806 881.536C363.662 891.307 361.113 906.601 368.76 917.222C358.989 921.47 348.793 928.268 341.571 938.889C320.754 970.751 367.911 981.797 390.002 973.3C390.002 973.3 354.316 992.418 367.061 1022.58C379.806 1052.74 420.59 1035.33 420.59 1035.33C420.59 1035.33 384.904 1074.41 415.068 1103.73C445.231 1133.04 480.492 1103.73 480.492 1103.73C480.492 1103.73 461.375 1148.33 493.238 1164.9C525.1 1181.47 549.741 1137.71 549.741 1137.71C549.741 1137.71 539.545 1183.17 570.558 1199.74C601.571 1216.31 623.238 1177.65 627.911 1163.2C627.911 1163.2 627.911 1211.63 671.669 1213.33C698.434 1214.61 707.355 1183.59 709.904 1159.38C720.525 1159.8 728.597 1159.38 732.845 1158.53C735.819 1157.68 740.068 1155.56 745.166 1153.01C749.839 1161.5 763.009 1180.62 784.251 1179.35C811.865 1178.07 818.662 1147.06 806.342 1120.72C806.342 1120.72 829.708 1136.44 853.924 1120.72C878.564 1105 856.473 1067.19 842.878 1062.09C844.153 1060.82 883.662 1062.94 881.538 1033.2Z" fill="white"/>
<path d="M880.687 1033.2C879.838 1014.51 862.419 1002.61 845.426 1000.07C844.151 1000.07 844.151 997.941 845.426 997.941C860.295 997.091 876.864 986.046 874.315 969.902C871.766 954.608 855.622 946.536 842.027 941.863C839.053 941.013 838.629 936.765 841.178 935.065C842.877 933.791 845.001 932.092 845.426 930.817C846.276 929.543 845.851 929.118 845.426 929.118C837.779 921.046 825.034 921.046 814.413 919.771C809.315 919.346 803.367 916.373 798.694 914.248C786.799 908.726 774.053 901.503 762.158 896.83C713.727 874.739 661.472 865.817 610.067 853.922C565.884 843.301 494.936 830.98 455.001 856.471L454.576 856.895C457.125 859.02 443.531 856.471 445.655 853.072C445.23 851.797 445.655 851.797 445.655 851.373V850.948C445.655 850.948 445.655 850.523 445.655 851.797L451.178 856.895C451.602 856.895 451.178 856.895 450.753 856.895C445.23 859.444 440.982 863.693 436.733 867.941C435.884 868.791 434.609 869.216 433.334 869.641C418.04 871.34 402.321 875.588 389.151 882.811C383.204 885.784 377.256 890.458 374.282 896.405C371.733 901.928 372.158 907.451 375.557 912.124C377.681 915.098 377.256 919.771 373.857 921.895C373.433 922.32 373.008 922.745 372.158 922.745C356.014 923.17 336.472 941.863 341.57 957.582C345.393 965.229 354.74 968.627 362.812 969.902C371.733 971.601 381.08 971.176 389.151 968.203C391.276 967.353 393.825 968.627 394.674 970.752C395.524 972.876 394.674 975 392.55 975.85C377.256 984.346 363.661 1002.61 373.008 1020.03C376.406 1028.1 383.629 1032.35 392.55 1032.78C401.047 1033.63 410.818 1031.08 418.89 1028.1C422.289 1026.83 426.112 1028.53 427.812 1031.93C428.661 1034.48 428.236 1037.03 426.537 1039.15C413.792 1054.87 404.021 1079.93 420.589 1095.65C435.459 1112.22 459.674 1108.4 475.393 1095.65C483.04 1089.28 494.086 1097.78 490.263 1106.7C486.864 1115.2 484.74 1126.67 486.014 1135.59C487.289 1153.43 506.831 1163.63 521.701 1152.58C529.348 1147.48 536.57 1138.99 541.243 1130.92C547.191 1120.29 563.759 1126.67 561.635 1138.14C561.21 1140.26 560.785 1143.24 560.785 1146.21C560.361 1153.86 560.785 1162.35 562.91 1169.58C567.583 1186.99 587.975 1198.04 601.57 1183.59C608.792 1177.22 615.165 1167.03 618.138 1158.1C622.387 1145.78 640.655 1148.76 640.655 1161.5C641.08 1170.85 643.629 1181.47 649.576 1189.12C656.374 1198.46 672.942 1204.41 683.563 1198.04C695.459 1188.69 698.433 1171.7 700.982 1156.41C703.106 1143.66 718.4 1149.18 727.321 1147.91C732.419 1147.48 730.72 1147.91 735.818 1145.78C737.942 1144.93 739.642 1144.08 741.766 1142.81C746.439 1140.26 751.962 1142.39 754.086 1146.63C758.334 1154.71 764.282 1161.93 771.08 1165.75C802.942 1181.05 813.563 1146.21 802.093 1121.14C799.968 1116.05 805.916 1111.37 810.165 1114.35C821.21 1121.57 836.504 1123.69 848.825 1117.75C874.315 1108.4 861.145 1072.29 843.302 1062.09C842.027 1061.67 841.602 1060.39 842.027 1059.12C842.452 1058.27 843.302 1057.84 844.151 1057.84C860.72 1059.97 882.387 1053.17 880.687 1033.2ZM882.812 1032.78C885.361 1054.44 862.419 1063.79 844.151 1062.94L845.001 1058.69C850.524 1060.82 853.923 1065.07 857.321 1068.89C867.093 1081.21 873.89 1099.48 864.969 1114.35C853.498 1130.49 829.707 1134.74 811.864 1127.52C809.315 1126.67 806.766 1125.39 804.217 1123.69L812.289 1116.9C819.936 1132.19 822.91 1151.73 814.413 1167.88C805.066 1186.14 780.001 1190.39 763.008 1181.47C751.962 1175.95 743.89 1166.18 737.942 1155.98L750.687 1159.8C746.014 1162.35 741.341 1164.9 735.818 1166.6C727.321 1168.3 719.25 1168.3 710.328 1167.88L720.949 1158.95C718.825 1178.92 714.576 1202.71 695.884 1216.31C675.491 1229.9 645.753 1221.83 631.308 1203.14C621.962 1190.82 617.714 1176.8 617.289 1161.93L639.805 1165.75C609.217 1248.17 523.4 1215.88 539.968 1134.31L559.936 1141.96C556.112 1147.91 552.714 1152.58 548.04 1157.68C538.694 1167.88 526.799 1176.37 511.929 1177.65C488.988 1179.77 467.321 1160.23 466.047 1137.71C464.772 1124.12 467.321 1111.8 472.419 1099.05L487.289 1110.1C483.89 1112.65 481.341 1114.35 477.942 1116.05C447.354 1133.89 408.269 1122.84 397.223 1087.58C392.125 1066.34 402.321 1045.52 415.916 1029.8L423.563 1040.42C394.674 1051.9 359.413 1044.25 359.413 1007.71C360.263 990.294 373.433 977.124 387.877 968.627L391.276 976.275C369.184 984.346 323.727 975 334.772 943.562C341.145 928.693 353.04 918.922 365.785 909.15L362.387 920.196C340.295 878.987 401.047 860.719 431.635 859.869L428.236 861.569C434.184 855.196 440.557 846.275 450.328 845.425C453.302 845.425 455.851 847.974 455.851 850.523C455.851 851.797 455.851 851.797 455.851 851.797C455.851 851.373 455.851 851.373 455.851 850.098C457.975 847.124 444.805 844.15 447.354 846.275L448.204 845.85C464.772 837.778 483.465 835.229 501.308 833.954C537.844 831.405 574.38 833.105 610.916 838.203C678.89 847.124 746.014 864.967 804.217 901.928C816.537 909.575 830.132 907.026 842.877 914.673C848.825 918.072 855.622 924.444 853.073 932.092C851.799 936.34 847.55 939.314 844.151 941.013L843.727 933.791C851.374 937.19 858.596 941.438 864.544 946.961C888.759 968.627 875.165 996.667 844.576 999.216V997.092C863.694 1000.07 881.962 1013.24 882.812 1032.78Z" fill="black"/>
<path d="M716.276 1142.39C716.276 1142.39 679.74 1240.52 706.929 1257.94C734.119 1275.36 726.897 1137.71 726.897 1137.71C726.897 1137.71 754.086 1254.97 788.923 1245.2C823.76 1235.42 739.642 1137.71 733.269 1136.01" fill="white"/>
<path d="M726.472 1146.21C713.727 1168.73 688.236 1231.6 706.929 1253.69C722.223 1267.29 722.648 1207.81 722.223 1200.16C721.799 1179.35 720.099 1158.1 715.851 1137.71L716.276 1134.31C717.975 1121.99 736.243 1122.42 737.093 1134.74C737.518 1157.25 757.06 1250.29 788.498 1241.8C798.694 1237.55 792.321 1223.53 788.923 1216.31C775.328 1189.97 754.936 1166.6 731.995 1147.91C730.295 1147.06 729.021 1145.36 727.321 1144.93C727.321 1144.93 727.321 1144.93 727.746 1145.36C728.171 1145.78 729.021 1146.21 729.87 1146.21C723.923 1144.51 720.949 1138.56 722.223 1132.61C723.923 1125.82 731.995 1122.42 737.942 1126.24C739.217 1126.67 740.066 1127.94 740.916 1128.79C748.563 1137.29 754.086 1146.63 760.459 1155.56C770.23 1171.7 818.661 1235.85 790.197 1246.9C757.06 1259.64 727.321 1163.63 715.851 1139.84L737.518 1136.86C735.393 1158.53 734.119 1179.35 731.995 1200.59C729.446 1219.28 729.446 1238.82 720.524 1256.24C716.276 1263.46 708.629 1263.89 702.681 1258.37C695.884 1252.42 694.184 1242.65 693.334 1234.58C691.635 1201.86 700.132 1170.85 705.655 1138.56C706.929 1132.61 712.452 1128.79 718.4 1129.64C726.472 1130.91 730.295 1139.84 726.472 1146.21Z" fill="black"/>
<path d="M274.021 954.608C274.021 954.608 302.06 1212.06 59.9029 1231.6C59.9029 1231.6 20.8179 1102.45 94.7395 1004.74C163.138 913.824 274.021 954.608 274.021 954.608Z" fill="white"/>
<path d="M275.72 953.333C276.57 954.608 276.145 956.307 276.57 957.581C277.844 972.876 278.269 988.595 277.419 1004.31C274.021 1088.86 237.485 1174.67 158.89 1214.61C128.302 1230.33 94.7395 1238.82 60.7525 1242.65C55.6545 1243.07 50.9813 1240.1 49.7068 1235.42C44.6087 1216.31 42.4846 1198.04 41.2101 1178.92C32.2885 1067.19 92.6153 935.49 220.916 942.712C238.759 943.562 256.602 946.536 273.596 952.483C274.021 952.483 274.87 952.908 275.72 953.333ZM266.373 960.555C267.223 961.83 269.347 963.529 270.197 963.529C268.922 963.104 265.949 962.255 264.674 961.83C110.034 921.046 40.3604 1071.01 64.5761 1203.14C65.8506 1211.63 67.9748 1220.56 70.0989 1228.63L58.6284 1220.98C205.622 1210.78 270.197 1099.48 264.674 961.405C264.674 960.555 264.249 957.157 264.249 956.307C264.674 957.582 265.099 959.706 266.373 960.555Z" fill="black"/>
<path d="M936.769 963.53C936.769 963.53 986.05 1000.92 1035.33 1093.53C1060.82 1141.54 1082.91 1197.62 1133.89 1222.26C1133.89 1222.26 1158.96 1102.88 1109.68 1031.08C1040.85 930.818 936.769 963.53 936.769 963.53Z" fill="white"/>
<path d="M941.016 963.955C941.44 963.105 941.016 960.981 940.166 960.556L940.591 960.981C961.833 978.399 980.101 999.216 997.094 1020.88C1014.09 1042.97 1028.96 1066.34 1042.55 1090.56C1068.04 1135.59 1090.13 1189.97 1138.99 1212.48L1123.7 1220.13C1134.74 1159.38 1137.29 1089.28 1103.73 1034.9C1068.89 980.098 1005.17 952.909 941.44 966.929L940.166 967.353H939.316H938.891C939.316 967.353 941.016 965.229 941.016 963.955ZM935.068 963.105C935.493 961.406 937.617 961.406 939.316 960.981C987.323 948.236 1040.85 958.432 1079.51 989.87C1143.66 1039.58 1154.71 1122.84 1147.49 1198.89C1146.64 1207.39 1145.79 1215.88 1144.09 1224.8C1142.81 1231.6 1134.74 1235 1128.79 1232.03C1115.62 1225.23 1103.3 1215.88 1093.53 1205.26C1064.22 1174.25 1048.07 1133.46 1029.81 1096.93C1005.59 1049.35 976.702 1003.04 937.192 966.504C936.342 965.654 935.068 964.379 935.068 963.105Z" fill="black"/>
<path d="M435.46 866.667C426.963 882.386 419.316 901.079 419.316 919.347C419.741 928.268 423.564 936.765 427.388 944.837C457.551 1003.46 509.381 1050.62 568.434 1078.66C602.421 1094.8 638.532 1107.12 675.493 1113.07C693.336 1115.62 712.029 1117.32 729.872 1115.62L726.473 1116.47C806.767 1076.54 844.153 1005.16 803.793 920.197C801.669 915.948 808.042 912.125 810.591 916.373C821.212 935.066 828.434 955.458 830.983 977.125C840.754 1047.65 794.447 1103.3 736.244 1136.01C735.395 1136.44 734.12 1136.86 732.846 1136.86C721.8 1137.71 712.453 1137.29 701.832 1136.44C652.551 1132.19 604.97 1115.62 561.212 1092.68C500.46 1061.24 447.78 1010.69 418.466 948.236C414.643 938.889 410.819 929.118 410.395 918.497C411.669 898.105 419.741 879.837 429.512 862.419C432.061 859.02 438.009 862.844 435.46 866.667Z" fill="black"/>
<path d="M720.524 1126.24C726.047 1064.22 728.171 1000.49 715.851 939.314C715.001 935.49 717.55 931.242 721.374 930.392C725.622 929.543 729.87 932.517 730.295 936.765C732.419 952.484 734.119 968.628 735.393 984.347C739.217 1030.23 740.916 1080.78 742.615 1127.09C742.191 1142.39 719.249 1141.54 720.524 1126.24Z" fill="black"/>
<path d="M729.021 1012.81C740.518 1012.81 749.838 1003.49 749.838 991.994C749.838 980.497 740.518 971.177 729.021 971.177C717.524 971.177 708.204 980.497 708.204 991.994C708.204 1003.49 717.524 1012.81 729.021 1012.81Z" fill="black"/>
<path d="M731.995 1076.96C743.492 1076.96 752.812 1067.64 752.812 1056.14C752.812 1044.65 743.492 1035.33 731.995 1035.33C720.498 1035.33 711.178 1044.65 711.178 1056.14C711.178 1067.64 720.498 1076.96 731.995 1076.96Z" fill="black"/>
<path d="M777.449 1043.4C768.527 1087.16 710.749 1113.5 613.462 1073.99C512.351 1033.2 468.593 935.915 457.547 907.027C517.449 794.87 475.815 717.125 475.815 717.125C613.887 705.229 734.54 866.667 734.54 866.667L753.233 946.536C754.933 953.334 758.331 959.281 763.429 963.53C772.351 979.249 782.972 1015.36 777.449 1043.4Z" fill="white"/>
<path d="M455.425 908.301C463.497 895.981 468.595 881.536 471.993 867.517C478.366 838.203 480.49 808.465 480.915 778.726V767.68C479.64 756.634 475.817 745.164 471.568 734.968C466.046 721.373 486.013 712.876 492.385 726.471C493.235 728.17 493.235 731.144 493.235 732.844C494.51 790.621 497.059 864.968 460.523 912.974C457.974 915.523 452.876 911.7 455.425 908.301Z" fill="black"/>
<path d="M739.214 865.818C745.587 869.641 747.711 874.739 748.561 879.837C751.11 890.033 750.26 901.079 752.809 911.7C754.933 921.896 761.306 931.667 763.005 942.288C765.129 953.334 771.502 976.7 774.051 988.171C774.901 990.72 773.201 993.694 770.227 994.118C768.528 994.543 767.254 994.118 765.979 993.269C760.456 988.596 757.907 983.922 754.509 977.975C748.986 967.778 745.162 958.432 741.763 946.961C738.79 936.765 740.064 925.72 737.515 915.099C735.391 904.903 729.443 895.131 727.319 884.51C726.044 879.412 725.62 873.89 729.443 867.517C731.992 864.968 736.241 864.118 739.214 865.818Z" fill="black"/>
<path d="M769.804 977.974C688.66 973.726 622.386 948.236 557.811 833.105C612.19 881.112 676.34 899.379 743.889 907.876L752.81 946.961C754.51 953.758 764.706 973.726 769.804 977.974Z" fill="black"/>
<path d="M766.407 962.255C780.851 989.445 789.348 1023.43 780.426 1053.6C773.629 1074.84 754.087 1090.56 732.845 1096.5C683.564 1109.67 626.636 1088.86 582.877 1065.49C528.923 1035.33 488.989 984.772 463.498 929.543C461.799 925.295 467.747 921.896 470.296 926.144C479.217 943.987 489.413 961.406 500.884 977.125C512.355 993.268 525.524 1008.14 540.394 1021.31C583.727 1060.39 642.355 1084.61 700.982 1084.61C761.309 1082.91 784.25 1051.05 770.23 992.419C768.106 983.072 764.707 973.301 760.034 965.229C757.485 961.83 763.858 958.007 766.407 962.255Z" fill="black"/>
<path d="M930.818 452.027C938.465 487.713 942.289 516.602 921.472 611.765C901.079 706.504 940.589 802.092 840.328 889.183C772.779 947.811 654.674 958.857 560.361 894.706C528.498 873.04 520.001 771.929 494.936 733.268C484.315 717.125 477.942 743.04 453.727 716.275C420.165 679.739 379.805 606.242 399.772 476.242C432.06 265.523 599.021 240.883 722.648 264.249C846.7 287.615 910.426 358.138 930.818 452.027Z" fill="white"/>
<path d="M474.542 753.66C464.771 737.517 452.451 723.497 440.98 708.628C423.987 685.687 411.242 659.347 402.745 632.157C366.209 515.752 385.751 364.085 493.66 291.438C593.497 223.889 784.248 244.281 871.765 325.85C915.523 365.36 939.738 422.713 944.836 480.49C947.385 519.151 938.039 556.536 929.967 593.922C920.621 630.458 918.497 666.994 918.497 704.804C918.072 742.615 916.372 782.125 901.928 817.811C879.836 872.19 833.529 916.373 777.876 935.066C704.804 960.556 618.562 946.111 558.66 897.255C556.111 895.131 558.66 891.732 561.634 893.007C640.229 937.615 743.464 945.262 819.934 893.857C865.392 863.268 896.83 814.837 904.052 760.458C910 723.497 908.301 686.111 911.699 648.726C912.974 632.157 917.647 609.216 921.046 592.647C926.144 565.033 929.542 537.419 929.117 509.804C928.693 482.615 922.745 455.85 914.673 429.935C886.634 337.745 806.34 283.366 713.725 268.497C575.229 244.281 454.15 295.687 418.039 439.706C402.32 510.229 390 587.974 419.738 656.373C430.359 682.288 447.778 704.379 467.745 723.497L487.287 744.314C495.784 752.811 481.34 763.857 474.542 753.66Z" fill="black"/>
<path d="M524.671 618.562C524.671 618.562 511.501 554.837 449.475 562.484C395.945 569.281 377.253 697.582 498.756 733.268" fill="white"/>
<path d="M493.234 677.614C483.463 672.092 476.666 662.745 476.241 651.275C476.666 642.778 477.94 633.007 475.816 624.51C474.541 616.438 466.045 614.314 459.672 614.739C452.875 616.013 448.626 624.51 447.352 631.307C447.352 631.732 446.927 633.007 446.927 633.431C446.502 635.556 443.103 635.556 442.254 633.431C436.731 616.863 449.051 598.595 466.894 600.719C491.96 602.418 495.358 628.758 490.685 648.726C488.136 657.222 491.535 664.869 496.208 672.092L497.058 673.366C499.182 675.915 495.783 679.314 493.234 677.614Z" fill="black"/>
<path d="M833.103 573.53C839.476 603.693 851.371 631.732 866.24 658.072C879.41 690.36 845.423 720.948 815.26 719.673C811.861 719.673 811.436 715 814.41 714.151C833.528 708.203 850.946 695.458 853.92 675.915C855.194 669.968 853.495 664.87 850.521 659.772C836.502 633.432 828.005 603.268 830.129 573.53C830.129 571.405 833.103 571.405 833.103 573.53Z" fill="black"/>
<path d="M522.549 618.987C512.777 593.922 491.536 570.131 463.072 570.556C460.523 570.131 456.274 570.98 453.725 570.98C446.503 571.405 440.555 573.954 435.032 579.052C407.843 606.242 412.516 654.248 434.608 684.412C442.255 695.033 452.026 704.379 463.072 712.026C474.117 719.673 486.438 725.621 499.608 730.719C502.581 731.569 501.307 736.242 498.333 735.817C469.869 729.869 442.679 715.85 423.987 692.484C395.098 657.647 389.15 599.445 423.562 565.458C431.209 558.66 441.83 553.562 452.451 553.562C455.849 553.562 460.947 552.713 464.346 553.562C482.189 554.412 499.183 563.333 510.228 577.353C520 589.248 525.523 603.693 527.222 618.137C527.222 620.686 523.398 621.536 522.549 618.987Z" fill="black"/>
<path d="M791.044 760.458C791.469 774.478 770.652 810.164 730.717 793.595C692.057 777.877 680.587 703.955 735.815 739.216C763.854 757.909 781.698 760.883 791.044 760.458Z" fill="white"/>
<path d="M799.966 760.883C788.495 764.707 777.449 761.308 766.828 757.484C751.109 751.961 738.364 741.765 723.495 734.543C703.103 724.772 695.031 737.942 700.554 757.059C706.077 777.452 723.92 795.295 746.011 796.144C765.554 798.269 786.371 780.425 784.672 760.458C782.972 751.961 795.292 749.412 797.417 757.484C796.992 771.929 788.07 782.125 778.724 790.622C760.031 805.916 731.567 802.517 712.874 788.497C698.43 777.027 686.534 758.759 689.083 739.216C689.933 730.72 698.005 720.948 706.926 720.524C727.743 718.824 740.064 732.844 756.208 742.19C768.953 749.412 783.397 758.334 798.266 757.059C800.815 756.21 802.515 759.608 799.966 760.883Z" fill="black"/>
<path d="M701.402 745.164C708.199 754.935 718.82 760.033 729.866 762.582C732.415 763.432 734.539 763.432 736.663 763.432C740.487 763.432 744.31 766.405 746.434 768.53C756.63 776.602 770.65 777.876 783.395 778.301C786.369 778.301 786.369 783.399 783.395 782.974C769.8 782.125 755.356 780.85 742.611 774.477C740.062 773.628 738.787 772.778 736.663 772.778C728.591 773.628 722.219 768.53 716.271 765.131C709.474 761.308 702.676 757.484 694.604 755.785C690.781 754.935 688.657 751.536 689.081 747.713C689.931 741.765 698.428 740.066 701.402 745.164Z" fill="black"/>
<path d="M674.641 616.863C664.445 616.438 656.798 607.941 657.648 597.745L658.073 585.85C658.498 575.654 666.994 568.007 677.19 568.856C687.386 569.281 695.034 577.778 694.184 587.974L693.759 599.87C693.334 609.641 684.838 617.288 674.641 616.863Z" fill="black"/>
<path d="M853.497 623.236C844.15 622.811 836.928 614.739 837.353 605.393L837.778 594.347C838.202 585.001 846.274 577.779 855.621 578.203C864.967 578.628 872.189 586.7 871.764 596.046L871.34 607.092C870.915 616.439 862.843 623.661 853.497 623.236Z" fill="black"/>
<path d="M712.877 593.922C698.857 584.576 683.563 578.203 666.57 581.602C661.047 582.451 655.524 584.151 652.125 587.974C650.851 589.674 647.877 589.249 647.877 586.7C648.302 578.203 655.524 572.68 662.321 569.281C675.491 562.484 693.759 563.759 705.655 572.68C709.903 575.229 724.348 590.948 716.7 594.347C715.001 595.196 714.151 594.772 712.877 593.922Z" fill="black"/>
<path d="M834.38 596.046C834.38 578.203 856.471 571.83 870.066 578.203C877.713 581.602 883.236 588.399 885.36 596.471C886.21 599.02 882.386 601.144 880.687 599.02C873.465 590.523 861.145 586.275 851.373 591.373C848.4 593.072 847.975 594.347 847.125 596.046C847.125 604.543 834.805 604.118 834.38 596.046Z" fill="black"/>
<path d="M733.269 523.824C742.191 526.798 751.112 518.726 749.413 508.955C748.563 503.857 746.439 498.759 742.191 494.935C729.445 483.464 676.766 473.268 644.903 488.138C616.864 501.732 692.485 510.229 733.269 523.824Z" fill="black"/>
<path d="M860.296 530.621C853.074 533.17 845.427 525.523 846.702 516.602C847.127 511.928 848.826 507.255 852.225 503.857C862.421 493.66 897.257 485.589 919.349 501.308C938.466 514.477 893.434 518.301 860.296 530.621Z" fill="black"/>
<path d="M945.688 864.118C969.054 824.608 965.655 775.752 965.655 775.752C962.256 819.085 940.59 848.824 926.145 864.118C911.701 862.419 895.557 857.745 876.864 849.249C965.655 761.732 944.838 531.471 944.413 511.504C941.864 408.268 885.361 395.523 818.661 427.386C525.524 326.275 587.975 460.948 516.603 597.745C449.478 488.987 333.073 650.425 472.42 723.072L485.59 864.968C455.001 869.216 428.237 870.066 404.871 867.941C395.949 842.876 370.884 771.079 368.76 763.857C366.211 754.935 382.354 853.072 382.354 853.072C382.354 853.072 352.191 813.562 342.844 790.196C342.844 790.196 349.642 832.255 364.511 860.294C138.073 794.445 390.001 363.236 405.295 365.785C405.295 365.785 363.661 234.51 466.047 176.732C566.309 120.229 644.054 190.327 644.054 190.327C678.465 103.236 853.073 106.209 882.812 213.268C1050.62 217.941 980.099 452.451 977.125 454.575C983.073 507.255 1074.41 849.249 945.688 864.118Z" fill="black"/>
<path d="M601.144 700.98C613.039 694.608 624.51 687.811 637.68 684.412C638.954 684.412 639.804 683.987 642.353 684.837C651.274 691.634 625.359 708.628 620.686 712.876C621.961 711.177 621.536 708.203 619.412 707.353C618.987 707.353 618.987 706.928 618.562 706.928C617.712 706.928 617.712 706.928 617.712 706.928C628.333 703.105 638.954 698.856 649.15 693.758C655.098 691.209 663.17 685.686 669.542 685.262C672.091 685.262 675.065 687.811 674.64 690.36C674.216 693.758 673.366 695.033 672.516 697.157C671.667 698.856 669.967 701.405 669.542 703.105C669.542 703.529 669.118 702.68 669.118 702.68C669.118 703.105 671.667 703.105 672.091 702.68C678.889 701.83 686.111 699.281 692.908 696.732C694.183 696.307 695.033 698.007 693.758 698.856C686.536 703.529 678.889 708.628 669.542 709.477C663.595 709.902 660.621 704.379 662.745 699.281C663.595 696.307 665.719 692.909 666.569 690.36C666.569 691.209 667.418 692.484 668.268 692.909C669.118 693.333 669.542 692.909 669.118 693.333C664.869 694.608 656.372 699.281 652.549 700.98C641.503 706.079 630.882 710.752 618.987 714.15C618.137 714.15 618.137 714.575 616.863 714.15C613.464 713.726 612.614 709.477 615.163 707.353C620.261 703.105 626.209 699.706 630.882 695.458C633.431 693.333 636.405 690.36 638.104 687.811C638.104 688.235 638.529 689.085 638.954 689.51C635.131 689.935 627.484 692.059 622.81 694.183C616.013 696.732 608.791 699.706 601.993 702.68C601.144 703.529 599.869 701.405 601.144 700.98Z" fill="black"/>
<path d="M876.438 700.98C880.261 696.732 896.405 676.34 900.654 686.961C900.654 687.81 900.654 688.66 900.654 689.085C898.954 697.582 893.431 704.804 889.183 712.026C890.033 709.902 888.333 706.928 886.209 706.503C885.36 706.503 884.935 706.503 884.51 706.503C884.085 706.503 884.51 706.503 884.935 706.078C893.431 700.556 899.804 693.758 908.301 687.81C910 686.961 912.124 685.686 914.248 686.961C916.373 688.66 915.948 691.209 915.098 692.908C914.248 695.033 913.399 696.732 912.549 698.856C912.124 699.281 911.699 699.706 910.85 699.281C910.425 699.281 910.425 698.856 910.425 698.431C910.425 697.582 910.425 692.059 910.425 691.209C910 690.359 910.425 690.784 910.425 691.209C910.425 691.634 911.275 692.484 912.124 692.484C912.549 692.484 913.399 692.484 913.399 692.484C906.176 700.98 897.68 709.052 887.909 714.575C884.935 715.85 881.536 713.301 881.961 709.902C881.961 709.477 882.386 708.627 882.81 708.203C885.784 703.954 889.183 699.706 891.732 695.457C893.007 693.333 894.706 690.359 895.131 688.235C895.131 689.085 896.83 690.359 897.255 689.935C890.458 692.484 884.51 698.007 878.562 702.255C876.863 703.529 875.588 701.83 876.438 700.98Z" fill="black"/>
</g>
<defs>
<clipPath id="clip0_409_3689">
<rect width="1300" height="1300" fill="white"/>
</clipPath>
</defs>
</svg>
